<?xml version="1.0" encoding="utf-8"?>
<!-- Generator: Adobe Illustrator 16.0.0, SVG Export Plug-In . SVG Version: 6.00 Build 0)  -->
<!DOCTYPE svg PUBLIC "-//W3C//DTD SVG 1.1//EN" "http://www.w3.org/Graphics/SVG/1.1/DTD/svg11.dtd">
<svg version="1.1" id="Capa_1" xmlns="http://www.w3.org/2000/svg" xmlns:xlink="http://www.w3.org/1999/xlink" x="0px" y="0px"
	 width="3700.127px" height="600px" viewBox="0 0 3700.127 600" enable-background="new 0 0 3700.127 600" xml:space="preserve">
<g id="_x30_1">
	<path fill="#1D7D4D" d="M300.695,598.562c0,0-36.663-42.905-68.257-51.1c-31.594-8.188-63.968-10.142-75.669-11.701
		c-11.702-1.561-29.254-2.729-57.727-22.23c-28.473-19.501-60.848-51.874-69.039-97.9c-8.191-46.023-4.384-83.729,16.772-131.447
		c20.24-45.651,26.523-54.217,25.353-79.96c-1.17-25.742-11.311-39.784-19.112-57.337c-7.801-17.552-11.311-27.303-9.361-39.784
		c1.95-12.482,7.411-14.432,26.914-30.424c19.502-15.992,32.374-29.644,37.834-38.615s13.262-18.332,25.743-15.212
		c12.481,3.121,27.303,13.262,47.586,13.262c20.283,0,33.934-3.901,54.997-15.991C257.791,8.03,270.662,0.229,300.695,0.229
		c30.035,0,48.758,10.922,61.238,18.331c12.481,7.412,32.375,17.943,54.218,17.943c21.843,0,38.61-8.972,42.901-10.922
		c4.291-1.949,9.361-4.29,15.992-3.12c6.632,1.171,10.921,5.851,15.212,12.092c4.291,6.24,11.312,18.722,26.688,31.44
		c11.758,9.728,26.751,21.605,29.872,23.556c0,0,9.358,5.851,10.528,16.382c1.17,10.531,2.377,14.327-4.979,30.339
		c0,0-25.373,48.778-23.885,74.975c1.948,34.323,20.674,57.727,34.715,95.171c14.042,37.445,15.603,83.859,3.898,124.425
		c-11.7,40.566-41.732,65.142-54.604,75.279c-12.872,10.141-34.716,23.401-54.218,27.303c-19.502,3.902-65.918,7.802-85.03,12.872
		C354.132,551.365,333.07,563.069,300.695,598.562z"/>
	<path fill="#FFFFFF" d="M300.686,581.011c0,0-34.999-37.174-65.055-45.188c-25.815-6.884-60.966-8.496-72.118-9.982
		c-11.152-1.483-30.221-3.771-57.358-22.355c-27.137-18.587-57.055-49.399-64.628-93.31c-7.232-41.936-1.838-79.798,18.325-125.276
		c19.291-43.51,26.449-51.673,25.333-76.207c-1.115-24.534-7.182-40.396-14.617-57.125s-16.291-29.06-14.432-40.955
		c1.859-11.896,6.635-10.579,25.222-25.819C99.945,69.55,109.872,58.88,115.077,50.33c5.204-8.55,11.748-17.256,23.365-13.328
		c13.809,4.669,27.688,11.397,48.862,11.469c19.331,0.066,30.972-4.073,51.245-15.242c27.335-15.059,33.512-20.127,62.137-20.127
		c29.41,0,46.469,10.409,58.363,17.472c11.895,7.062,28.822,17.63,50.501,18.27c20.812,0.612,42.652-7.38,46.742-9.238
		c4.088-1.858,10.564-4.613,15.653-3.087c6.146,1.845,8.294,6.664,12.794,12.308c6.827,8.562,10.005,14.396,24.12,27.121
		c10.104,9.109,23.476,18.619,26.447,20.478c0,0,9.246,5.853,10.145,13.408c1.364,11.505-2.828,18.332-11.604,35.591
		c0,0-19.458,36.174-18.039,61.141c1.859,32.714,16.694,56.537,34.228,97.333c15.048,35.02,15.993,91.062,5.722,121.945
		c-11.07,33.287-36.104,57.925-50.874,70.575c-11.857,10.16-33.771,23.099-52.355,26.816c-18.586,3.716-64.479,6.641-82.693,11.473
		C351.611,539.539,331.539,547.184,300.686,581.011z"/>
	<path fill="#1D7D4D" d="M300.689,569.309c0,0-27.103-33.934-62.908-42.524c-29.251-7.021-58.957-8.177-69.741-9.616
		c-10.785-1.438-28.093-2.516-54.336-20.488c-26.242-17.974-54.948-47.812-62.498-90.229c-7.549-42.421-0.424-79.856,17.76-118.808
		c18.912-40.509,26.077-55.917,25.669-76.034c-0.482-23.745-4.855-32.745-13.341-56.527c-5.95-16.673-18.04-32.355-16.189-42.328
		c1.953-10.522,5.515-6.222,23.49-20.959c17.974-14.74,27.574-25.059,32.607-33.326c5.032-8.268,9.239-15.136,18.99-11.819
		c11.226,3.816,20.469,9.473,39.154,10.021c30.664,0.898,41.652-3.938,61.257-14.738c26.434-14.563,32.412-19.077,60.092-19.077
		c28.441,0,43.761,9.678,55.265,16.508c11.503,6.829,29.039,17.181,50.007,17.666c23.25,0.54,37.1-2.971,46.458-7.261
		c3.948-1.81,11.093-5.062,15.967-3.437c5.05,1.682,7.682,6.479,13.177,14.373c6.051,8.691,11.115,14.176,21.82,24.938
		c13.491,13.563,27.04,15.632,30.169,23.647c2.633,6.737-5.997,22.811-14.48,39.501c0,0-14.335,26.183-13.164,60.116
		c1.092,31.667,13.801,53.114,32.617,95.369c14.994,33.67,16.955,87.146,7.021,117.015c-10.706,32.188-33.111,55.156-47.394,67.391
		c-11.472,9.824-33.128,22.739-51.104,26.334c-17.973,3.598-58.791,5.543-80.668,10.692
		C347.742,530.09,330.527,536.598,300.689,569.309z"/>
	<polygon fill="#FFFFFF" points="113.765,434.741 185.437,434.741 185.437,447.32 161.156,447.32 161.156,478.036 113.765,478.036 
		156.15,457.025 	"/>
	<polygon fill="#FFFFFF" points="486.197,434.741 414.526,434.741 414.526,447.32 438.807,447.32 438.807,478.036 486.197,478.036 
		443.812,457.025 	"/>
	<rect x="165.739" y="451.123" fill="#FFFFFF" width="268.353" height="43.003"/>
</g>
<g id="_x30_2">
	<g>
		<path fill="#FFFFFF" d="M147.553,400.588c0,0,15.943,15.727,46.221,17.771h13.164c0,0,18.869,0.146,44.758-10.824
			c25.89-10.97,32.325-17.698,49.146-31.155c16.82-13.456,47.831-49.39,57.483-70.354c4.792-10.408,8.854-21.112,12.762-31.229
			c5.91-15.304,11.177-29.521,14.444-43.441l-3.62,1.737c0,0-0.622,3.931-2.206,9.198c-1.54,5.123-3.42,10.79-7.119,21.28
			c-3.408,9.666-12.213,31.143-17.479,40.699c-5.267,9.559-12.543,20.666-21.903,31.979c-9.361,11.312-22.69,25.875-36.312,36.987
			c-15.748,12.848-24.5,18.938-37.03,24.938c-9.598,4.596-36.786,16.091-54.338,16.091c-17.552,0-13.262,0-13.262,0
			s-27.45-2.192-42.15-17.334L147.553,400.588z"/>
		<path fill="#FFFFFF" d="M265.198,293.922c5.173-2.668,29.475-15.198,35.257-18.417c6.48-3.607,97.947-50.22,126.616-65.724
			c0,0,2.39-1.122,2.585-2.146c0.192-1.023-0.292-1.559-0.686-2.144c0,0,15.943-7.851,16.626-8.289
			c0.685-0.438,1.466-1.023,1.515-1.56c0.048-0.537,15.26-6.826,18.916-8.483c3.654-1.658,15.847-7.021,15.847-7.021
			s0.876-0.39,1.267,0c0.395,0.39,0.938,0.372,1.609,0.05c3.656-1.756,3.656-1.756,3.656-1.756s0.729-0.391,0.438-0.976
			c-0.293-0.585-1.853-3.755-1.853-3.755s-0.1-0.39-1.121,0c-1.023,0.391-4.388,1.854-4.388,1.854s-0.439,0.195-0.195,0.684
			c0.243,0.486,0.39,0.682-0.05,0.877c-0.438,0.194-13.025,5.81-16.188,7.215c-18.088,8.045-18.088,8.045-18.088,8.045
			s-0.634,0.391-1.22-0.536c-0.585-0.926-2.099-3.998-2.099-3.998s-0.293-0.342,0.929-0.878c1.22-0.535,18.039-8.288,26.276-12.091
			c8.24-3.803,19.161-8.679,19.161-8.679s1.22-0.438,1.023-1.072c-0.193-0.635-1.462-3.268-1.462-3.268s-0.053-0.439-1.316,0
			c-1.268,0.438-3.804,1.316-3.804,1.316s-0.438,0.098-1.218-0.827c-0.78-0.929-2.93-2.878-4.636-3.415
			c-1.706-0.534-3.266-0.633-4.875,0.293c-1.605,0.928-2.439,1.823-2.616,4.237c-0.159,2.198,0.474,2.93,0.617,3.515
			c0.146,0.585,0.487,1.415-0.878,1.854c0,0-6.436,3.119-24.67,11.604c-18.231,8.483-22.522,10.531-22.522,10.531
			s-0.879,0.05-1.658-0.341s-2.633,0.829-3.803,1.415c-1.172,0.585-2.583,1.17-2.535,1.755c0.049,0.585,0.293,1.266-0.928,1.852
			c-1.221,0.585-2.729,1.268-2.729,1.268s-0.537,0.146-0.83-0.292c-0.292-0.438-0.534-0.635-1.656-0.099
			c-1.119,0.537-2.729,1.513-2.975,2c-0.243,0.486,0.048,1.17-0.635,1.463c-0.685,0.292-21.258,9.702-24.475,11.068
			c0,0-0.537,0.292-1.608,0.146c-1.073-0.146-2.438-0.781-3.56-0.586c-1.121,0.194-2.049,1.657-2.488,2.487
			c0,0-0.146,0.194-2.047,0.194s-2.049,0.292-3.268,0.73c-1.218,0.439-29.546,12.335-34.227,14.481c0,0-3.121,1.071-3.707,1.755
			c-0.584,0.684-1.56,1.755-3.217,1.95c-1.658,0.195-3.511,0.024-4.535,0.171c-1.023,0.146-4.168,1.39-7.239,2.486
			c-3.071,1.096-5.046,1.682-6.362,2.048c-1.316,0.365-1.535,0.365-1.609,0.877c-0.072,0.513-2.778,3.804-5.338,4.389
			c0,0-23.575,13.335-32.544,17.431c-8.971,4.096-13.75,6.436-13.75,6.436s-0.438,0.39-1.365-0.585
			c-0.927-0.976-2.243-2.097-2.243-2.097s-0.682-0.585-1.804,0.146s-1.56,1.219-1.804,1.658c-0.244,0.438-0.39,0.975-1.316,1.316
			c-0.927,0.34-5.85,2.681-8.971,4.144c-3.121,1.462-7.07,3.266-9.654,4.388c0,0-0.584,0.391-1.608-0.194
			c-1.023-0.585-1.512-0.731-2.438-0.195c-0.926,0.536-3.852,2.145-4.729,2.584c-0.877,0.438-1.219,0.731-0.927,1.414
			s0.39,0.731,0.39,1.609c0,0.878,0.146,4.729,0.049,5.119c-0.097,0.39-0.292,0.974-1.072,2.096
			c-0.78,1.122-1.511,2.146-2.633,3.364c-1.121,1.22-5.217,6.046-8.142,9.947c-2.925,3.899-6.046,7.996-7.313,9.458
			c-1.267,1.463-4.096,3.705-5.851,3.705s-4.388,0-4.388,0s-2.438-0.975-5.168-0.975s-4.193,0.488-6.826,2.34
			c-2.633,1.853-31.398,22.524-43.49,30.911c-12.091,8.386-21.355,15.31-24.476,17.354c-3.121,2.05-6.24,3.315-6.923,7.118
			c-0.683,3.805,3.817,5.272,7.216,7.41c4.351,2.737,8.777,7.412,12.287,12.971c0,0,4.387,6.825,6.533,11.215
			c2.146,4.39,2.73,9.164,7.119,9.164c4.389,0,7.85-5.692,11.165-10.043c3.315-4.349,2.633-3.511,2.633-3.511
			s35.446-43.489,40.906-50.313c5.46-6.826,9.361-11.702,13.652-12.68c4.291-0.976,11.116-1.561,13.457-4.482
			c2.34-2.926,3.021-4.11,3.706-7.996c0.829-4.697,2.528-8.006,9.625-10.988c0,0,13.729-7.395,17.581-9.441
			c0,0,0.535-0.39,0.438,0.488c-0.097,0.879-0.098,3.806,0.585,4.684s2.73,3.266,5.656,3.461c0,0,0.244-0.194-0.292-0.779
			c-0.536-0.585-2.389-1.999-2.974-3.314c-0.585-1.314-0.292-3.607,0.049-4.682c0.341-1.07,1.169-1.999,2.243-2.584
			C255.889,298.663,262.911,295.101,265.198,293.922z"/>
		<path fill="#FFFFFF" d="M264.227,294.422c0.487,2.633,1.14,5.314,1.17,8.096c0.049,4.425-2.395,8.097-2.395,8.097
			c-5.168,7.509-12.622,8.287-12.622,8.287c-12.579,2.34-17.552-7.998-17.552-7.998l-0.244-0.438l2.194-1.268
			c0,0,4.077,7.003,9.069,7.604c6.046,0.731,9.264-0.461,11.506-1.897c0,0,4.34-2.315,6.582-7.804c0,0,1.571-4.361,0.274-7.104
			c-1.267-2.683-2.858-3.475-2.858-3.475l4.729-2.438L264.227,294.422z"/>
	</g>
	<g>
		<path fill="#FFFFFF" d="M452.668,400.588c0,0-15.943,15.727-46.221,17.771h-13.164c0,0-18.868,0.146-44.758-10.824
			c-25.891-10.97-32.325-17.698-49.146-31.155c-16.821-13.456-47.831-49.39-57.483-70.354c-4.792-10.408-8.855-21.112-12.762-31.229
			c-5.91-15.304-11.177-29.521-14.444-43.441l3.62,1.737c0,0,0.622,3.931,2.205,9.198c1.541,5.123,3.42,10.79,7.119,21.28
			c3.409,9.666,12.213,31.143,17.479,40.699c5.266,9.559,12.542,20.666,21.904,31.979c9.362,11.312,22.69,25.875,36.311,36.987
			c15.748,12.848,24.5,18.938,37.031,24.938c9.598,4.596,36.785,16.091,54.338,16.091c17.552,0,13.261,0,13.261,0
			s27.45-2.192,42.15-17.334L452.668,400.588z"/>
		<path fill="#FFFFFF" d="M335.023,293.922c-5.174-2.668-29.476-15.198-35.257-18.417c-6.481-3.607-97.947-50.22-126.616-65.724
			c0,0-2.389-1.122-2.584-2.146c-0.195-1.023,0.291-1.559,0.682-2.144c0,0-15.943-7.851-16.625-8.289s-1.464-1.023-1.512-1.56
			c-0.048-0.537-15.26-6.826-18.917-8.483c-3.657-1.658-15.846-7.021-15.846-7.021s-0.876-0.39-1.267,0
			c-0.391,0.39-0.937,0.372-1.609,0.05c-3.657-1.756-3.657-1.756-3.657-1.756s-0.731-0.391-0.438-0.976s1.852-3.755,1.852-3.755
			s0.097-0.39,1.121,0c1.024,0.391,4.388,1.854,4.388,1.854s0.439,0.195,0.195,0.684c-0.243,0.486-0.39,0.682,0.049,0.877
			c0.438,0.194,13.026,5.81,16.187,7.215c18.088,8.045,18.088,8.045,18.088,8.045s0.634,0.391,1.219-0.536
			c0.585-0.926,2.096-3.998,2.096-3.998s0.294-0.342-0.925-0.878c-1.219-0.535-18.039-8.288-26.279-12.091
			c-8.24-3.803-19.161-8.679-19.161-8.679s-1.218-0.438-1.024-1.072c0.194-0.635,1.463-3.268,1.463-3.268s0.049-0.439,1.316,0
			c1.267,0.438,3.803,1.316,3.803,1.316s0.438,0.098,1.218-0.827c0.781-0.929,2.927-2.878,4.633-3.415
			c1.706-0.534,3.266-0.633,4.875,0.293c1.609,0.928,2.443,1.823,2.619,4.237c0.16,2.198-0.473,2.93-0.619,3.515
			s-0.488,1.415,0.877,1.854c0,0,6.436,3.119,24.67,11.604c18.234,8.483,22.525,10.531,22.525,10.531s0.878,0.05,1.658-0.341
			c0.78-0.391,2.633,0.829,3.803,1.415c1.17,0.585,2.583,1.17,2.534,1.755c-0.048,0.585-0.292,1.266,0.927,1.852
			c1.22,0.585,2.73,1.268,2.73,1.268s0.537,0.146,0.83-0.292s0.535-0.635,1.657-0.099c1.122,0.537,2.731,1.513,2.975,2
			c0.243,0.486-0.048,1.17,0.634,1.463c0.683,0.292,21.257,9.702,24.475,11.068c0,0,0.536,0.292,1.609,0.146
			c1.073-0.146,2.438-0.781,3.56-0.586c1.121,0.194,2.048,1.657,2.486,2.487c0,0,0.146,0.194,2.048,0.194
			c1.902,0,2.049,0.292,3.267,0.73c1.218,0.439,29.546,12.335,34.227,14.481c0,0,3.121,1.071,3.706,1.755
			c0.585,0.684,1.56,1.755,3.218,1.95c1.658,0.195,3.51,0.024,4.534,0.171c1.024,0.146,4.169,1.39,7.24,2.486
			c3.072,1.097,5.046,1.682,6.363,2.048c1.316,0.365,1.536,0.365,1.609,0.877c0.073,0.513,2.779,3.804,5.339,4.389
			c0,0,23.574,13.335,32.544,17.431c8.971,4.096,13.749,6.436,13.749,6.436s0.439,0.39,1.365-0.585
			c0.928-0.976,2.244-2.097,2.244-2.097s0.681-0.585,1.803,0.146c1.121,0.731,1.56,1.219,1.804,1.658
			c0.244,0.438,0.392,0.975,1.315,1.316c0.929,0.34,5.852,2.681,8.972,4.144c3.121,1.462,7.069,3.266,9.655,4.388
			c0,0,0.584,0.391,1.606-0.194c1.024-0.585,1.513-0.731,2.438-0.195c0.927,0.536,3.853,2.145,4.729,2.584
			c0.877,0.438,1.22,0.731,0.927,1.414s-0.392,0.731-0.392,1.609c0,0.878-0.146,4.729-0.048,5.119
			c0.098,0.39,0.293,0.974,1.072,2.096s1.512,2.146,2.633,3.364c1.121,1.22,5.218,6.046,8.143,9.947
			c2.926,3.899,6.046,7.996,7.313,9.458c1.268,1.463,4.096,3.705,5.851,3.705c1.756,0,4.389,0,4.389,0s2.438-0.975,5.168-0.975
			c2.73,0,4.192,0.488,6.825,2.34c2.634,1.853,31.398,22.524,43.49,30.911c12.092,8.386,21.356,15.31,24.478,17.354
			c3.12,2.05,6.238,3.315,6.925,7.118c0.684,3.805-3.816,5.272-7.218,7.41c-4.352,2.737-8.774,7.412-12.285,12.971
			c0,0-4.39,6.825-6.533,11.215c-2.146,4.39-2.73,9.164-7.119,9.164c-4.388,0-7.848-5.692-11.164-10.043
			c-3.316-4.349-2.633-3.511-2.633-3.511s-35.446-43.489-40.907-50.313c-5.46-6.826-9.359-11.702-13.649-12.68
			c-4.291-0.976-11.117-1.561-13.457-4.482c-2.34-2.926-3.021-4.11-3.707-7.996c-0.828-4.697-2.527-8.006-9.625-10.988
			c0,0-13.729-7.395-17.58-9.441c0,0-0.535-0.39-0.438,0.488c0.096,0.879,0.098,3.806-0.586,4.684s-2.73,3.266-5.656,3.461
			c0,0-0.244-0.194,0.293-0.779c0.537-0.585,2.389-1.999,2.973-3.314c0.587-1.314,0.294-3.607-0.047-4.682
			c-0.34-1.07-1.17-1.999-2.242-2.584C344.332,298.663,337.311,295.101,335.023,293.922z"/>
		<path fill="#FFFFFF" d="M335.994,294.422c-0.486,2.633-1.139,5.314-1.17,8.096c-0.049,4.425,2.396,8.097,2.396,8.097
			c5.169,7.509,12.622,8.287,12.622,8.287c12.579,2.34,17.553-7.998,17.553-7.998l0.244-0.438l-2.193-1.268
			c0,0-4.077,7.003-9.068,7.604c-6.048,0.731-9.266-0.461-11.507-1.897c0,0-4.341-2.315-6.583-7.804c0,0-1.57-4.361-0.273-7.104
			c1.268-2.683,2.857-3.475,2.857-3.475l-4.729-2.438L335.994,294.422z"/>
	</g>
</g>
<g id="_x30_3">
	<path fill="#FFFFFF" d="M122.152,109.894c0,2.536,0.097,4.534,0.536,9.409c0.439,4.876,2.829,6.779,4.973,8.146
		c2.145,1.364,5.997,1.414,7.996,1.218c2-0.194,4.924-1.803,6.582-3.656c1.658-1.853,1.755-4.974,1.755-4.974v-4.582h-6.533v4.096
		c0,0-0.17,3.534-3.9,3.534c-4.388,0-4.291-5.07-4.291-5.948v-8.117v1.01v-8.118c0-0.877-0.097-5.947,4.291-5.947
		c3.73,0,3.9,3.534,3.9,3.534v2.926h6.533v-3.412c0,0-0.097-3.121-1.755-4.974c-1.658-1.854-4.583-3.462-6.582-3.656
		c-1.999-0.197-5.851-0.146-7.996,1.218c-2.145,1.364-4.534,3.267-4.973,8.143c-0.438,4.875-0.536,6.874-0.536,9.409V109.894
		L122.152,109.894z"/>
	<path fill="#FFFFFF" d="M242.553,158.152c0,2.535,0.097,4.534,0.536,9.41c0.439,4.875,2.828,6.776,4.973,8.142
		c2.145,1.366,5.997,1.414,7.996,1.22c2-0.197,4.924-1.805,6.582-3.657c1.658-1.854,1.755-4.973,1.755-4.973v-4.584h-6.534v4.096
		c0,0-0.17,3.534-3.9,3.534c-4.388,0-4.291-5.07-4.291-5.947v-8.118v1.01v-8.117c0-0.878-0.097-5.948,4.291-5.948
		c3.73,0,3.9,3.534,3.9,3.534v2.926h6.534v-3.413c0,0-0.097-3.12-1.755-4.974c-1.658-1.853-4.583-3.46-6.582-3.656
		c-1.999-0.194-5.851-0.146-7.996,1.219c-2.145,1.366-4.534,3.268-4.973,8.143c-0.439,4.876-0.536,6.874-0.536,9.41V158.152z"/>
	<g>
		<polygon fill="#FFFFFF" points="154.574,127.725 147.188,127.725 155.817,91.158 165.105,91.158 173.516,127.725 166.129,127.725 
			164.228,118.51 156.256,118.51 		"/>
		<polygon fill="#1D7D4D" points="160.352,96.569 157.353,113.171 163.131,113.171 		"/>
	</g>
	<g>
		<polygon fill="#FFFFFF" points="211.753,127.725 204.366,127.725 212.996,91.158 222.284,91.158 230.694,127.725 223.308,127.725 
			221.407,118.51 213.435,118.51 		"/>
		<polygon fill="#1D7D4D" points="217.53,96.569 214.532,113.171 220.31,113.171 		"/>
	</g>
	<g>
		<path fill="#FFFFFF" d="M183.974,112.173v15.552h-7.021V91.158h12.872c0,0,4.168-0.439,7.313,1.828s3.218,5.558,3.218,7.387
			c0,1.828,0,4.497-1.829,6.582c-1.434,1.634-2.706,2.048-3.803,2.048c0,0,5.119,0.585,5.192,4.534
			c0.073,3.949-0.049,4.729,0.195,7.558c0.244,2.827,0.731,5.167,1.122,5.898v0.731h-7.41c0,0-0.146-3.613-0.342-6.922
			c-0.292-4.926-0.292-4.926-0.292-4.926s0.324-3.656-3.381-3.656C186.102,112.221,183.974,112.173,183.974,112.173z"/>
		<path fill="#1D7D4D" d="M184.011,101.799v-5.156h0.109h5.997c0,0,1.207,0,2.011,1.024c0.52,0.662,1.097,2.23,1.097,4.132v-0.22
			c0,1.901-0.577,3.47-1.097,4.133c-0.805,1.023-2.011,1.023-2.011,1.023h-5.997h-0.109v-5.156V101.799z"/>
	</g>
	<g>
		<path fill="#FFFFFF" d="M336.239,112.173v15.552h-7.021V91.158h12.872c0,0,4.168-0.439,7.312,1.828
			c3.146,2.267,3.219,5.558,3.219,7.387c0,1.828,0,4.497-1.828,6.582c-1.436,1.634-2.706,2.048-3.804,2.048
			c0,0,5.12,0.585,5.192,4.534c0.072,3.949-0.05,4.729,0.193,7.558c0.245,2.827,0.73,5.167,1.122,5.898v0.731h-7.41
			c0,0-0.146-3.613-0.342-6.922c-0.292-4.926-0.292-4.926-0.292-4.926s0.324-3.656-3.383-3.656
			C338.365,112.22,336.239,112.173,336.239,112.173z"/>
		<path fill="#1D7D4D" d="M336.275,101.799v-5.156h0.108h5.997c0,0,1.207,0,2.012,1.024c0.521,0.662,1.098,2.23,1.098,4.132v-0.22
			c0,1.901-0.577,3.47-1.098,4.133c-0.805,1.023-2.012,1.023-2.012,1.023h-5.997h-0.108v-5.156V101.799z"/>
	</g>
	<g>
		<path fill="#FFFFFF" d="M234.29,127.725h13.676c0,0,2.304,0.293,4.717-2.011c2.472-2.358,2.329-3.741,2.694-5.424
			c0,0,0.426-5.974-0.171-7.51c-0.48-1.236-1.353-3.668-4.864-4.582c0,0,3.499-1.243,4.084-4.07
			c0.585-2.828,0.384-5.618,0.146-6.875c-0.341-1.806-1.783-3.938-4.096-5.168c-1.755-0.934-5.46-0.927-5.851-0.927
			s-10.336,0-10.336,0L234.29,127.725L234.29,127.725z"/>
		<path fill="#1D7D4D" d="M241.092,96.569h4.095c0,0,2.487,0,2.487,3.511c0,2.486,0,3.218,0,3.218s-0.244,2.779-3.291,2.779
			c-3.145,0-3.291,0-3.291,0V96.569z"/>
		<path fill="#1D7D4D" d="M241.092,111.416h4.726c0,0,2.869,0,2.869,4.05c0,2.87,0,3.714,0,3.714s-0.281,3.206-3.797,3.206
			c-3.628,0-3.797,0-3.797,0L241.092,111.416L241.092,111.416z"/>
	</g>
	<g>
		<path fill="#FFFFFF" d="M452.083,114.707c0,4.388-0.576,6.473-1.17,7.605c-1.146,2.18-2.002,3.28-4.315,4.51
			c-1.755,0.935-7.154,0.902-7.549,0.902c-0.39,0-10.336,0-10.336,0V109.88v-0.877V91.158c0,0,9.946,0,10.336,0
			c0.395,0,5.794-0.032,7.549,0.902c2.313,1.229,3.174,2.33,4.315,4.509c0.594,1.134,1.17,3.219,1.17,7.606V114.707z"/>
		<path fill="#1D7D4D" d="M444.843,110.611c0,0,0,4.096,0,6.582c0,5.266-4.665,5.266-4.665,5.266h-4.663v-11.848v-2.194V96.569
			h4.663c0,0,4.665,0,4.665,5.266c0,2.487,0,6.582,0,6.582V110.611z"/>
	</g>
	<rect x="261.594" y="91.158" fill="#FFFFFF" width="6.825" height="36.578"/>
	<rect x="300.16" y="139.137" fill="#FFFFFF" width="6.826" height="36.58"/>
	<polygon fill="#FFFFFF" points="275.245,91.158 275.245,127.736 281.876,127.736 281.193,101.323 291.14,127.736 298.355,127.736 
		298.355,91.158 291.334,91.158 292.408,118.12 282.266,91.158 	"/>
	<polygon fill="#FFFFFF" points="304.986,91.158 324.002,91.158 324.002,96.569 311.52,96.569 311.52,106.029 322.93,106.029 
		322.93,111.1 311.52,111.1 311.52,122.411 324.002,122.411 324.002,127.736 304.986,127.736 	"/>
	<polygon fill="#FFFFFF" points="338.285,139.137 357.302,139.137 357.302,144.549 344.818,144.549 344.818,154.008 
		356.229,154.008 356.229,159.079 344.818,159.079 344.818,170.39 357.302,170.39 357.302,175.717 338.285,175.717 	"/>
	<polygon fill="#FFFFFF" points="458.274,91.158 477.289,91.158 477.289,96.569 464.809,96.569 464.809,106.029 476.217,106.029 
		476.217,111.1 464.809,111.1 464.809,122.411 477.289,122.411 477.289,127.736 458.274,127.736 	"/>
	<path fill="#FFFFFF" d="M371.271,90.299c2.049,0.036,4.488,0.35,6.061,1.298c2.262,1.364,4.782,3.267,5.244,8.143
		c0.463,4.875,0.564,6.874,0.564,9.409v0.745c0,2.536-0.103,4.534-0.564,9.409c-0.463,4.876-2.982,6.779-5.244,8.146
		c-1.548,0.935-3.938,1.252-5.971,1.297l-0.237,0.003c-2.08-0.024-4.599-0.329-6.209-1.3c-2.261-1.364-4.782-3.268-5.243-8.146
		c-0.463-4.875-0.564-6.873-0.564-9.409v-0.745c0-2.535,0.103-4.534,0.564-9.409c0.461-4.876,2.982-6.778,5.243-8.143
		c1.587-0.956,4.056-1.268,6.117-1.301L371.271,90.299z"/>
	<path fill="#1D7D4D" d="M371.109,123.082c4.627,0,4.526-5.07,4.526-5.948v-8.117v1.01v-8.118c0-0.877,0.099-5.947-4.526-5.947
		h0.027c-4.625,0-4.525,5.07-4.525,5.947v8.118v-1.01v8.117c0,0.878-0.102,5.948,4.525,5.948H371.109z"/>
	<path fill="#FFFFFF" d="M403.349,101.908c0-0.877,0.093-5.947-4.191-5.947h0.023c-4.284,0-4.872,4.949-2.093,7.143
		c0,0,9.014,5.808,10.872,7.85c2.487,2.73,3.169,5.607,2.682,8.775c-0.742,4.838-2.42,6.385-5.702,8.008
		c-1.534,0.759-3.667,0.962-5.551,1.007l-0.221,0.003c-1.926-0.024-4.26-0.329-5.751-1.3c-2.097-1.364-4.856-2.646-4.856-10.838V115
		h6.428v2.134c0,0.878,0.25,5.948,4.536,5.948h-0.369c4.807,0.255,4.564-3.114,4.514-4.279c0,0,0.132-3.455-6.076-6.863
		c-6.282-3.449-9.032-7.423-9.032-12.2c0.002-4.895,2.763-6.778,4.857-8.143c1.469-0.956,3.756-1.268,5.666-1.301l0.222,0.003
		c1.898,0.036,4.159,0.35,5.614,1.298c2.096,1.364,4.819,4.004,4.857,10.294L403.349,101.908z"/>
	<polygon fill="#FFFFFF" points="270.37,139.137 277,139.137 277,153.516 286.8,153.516 286.8,139.572 293.382,139.572 
		293.382,175.717 286.8,175.717 286.8,159.271 276.903,159.271 276.903,175.717 270.37,175.717 	"/>
	<polygon fill="#FFFFFF" points="313.566,139.137 320.588,139.137 320.588,170.68 333.07,170.68 333.07,175.717 313.566,175.717 	
		"/>
	<path fill="#00693B" d="M356.275,460.388c5.396,0,10.791,0,16.188,0c0,1.169,0,2.341,0,3.512c-5.396,0-10.793,0-16.188,0
		C356.275,462.729,356.275,461.557,356.275,460.388z"/>
	<g>
		<path fill="#1D7D4D" d="M176.756,470.974c0-2.134,0.319-3.923,0.957-5.371c0.476-1.063,1.126-2.021,1.95-2.867
			c0.824-0.852,1.726-1.479,2.707-1.889c1.304-0.553,2.809-0.83,4.514-0.83c3.085,0,5.554,0.958,7.406,2.872
			s2.778,4.575,2.778,7.984c0,3.381-0.919,6.026-2.757,7.935c-1.838,1.91-4.295,2.864-7.371,2.864c-3.114,0-5.59-0.95-7.428-2.85
			C177.675,476.923,176.756,474.307,176.756,470.974z M181.113,470.831c0,2.371,0.547,4.168,1.643,5.392
			c1.095,1.228,2.485,1.836,4.171,1.836c1.688,0,3.069-0.604,4.15-1.819c1.08-1.213,1.621-3.034,1.621-5.463
			c0-2.399-0.526-4.19-1.579-5.371c-1.052-1.183-2.449-1.771-4.192-1.771c-1.743,0-3.146,0.601-4.214,1.793
			C181.646,466.62,181.113,468.422,181.113,470.831z"/>
		<path fill="#1D7D4D" d="M200.382,481.315v-20.94h8.899c2.237,0,3.864,0.188,4.877,0.564c1.015,0.376,1.826,1.044,2.436,2.007
			c0.609,0.962,0.914,2.061,0.914,3.299c0,1.572-0.462,2.869-1.386,3.893c-0.924,1.024-2.305,1.669-4.142,1.938
			c0.914,0.534,1.669,1.12,2.264,1.758c0.595,0.638,1.397,1.771,2.407,3.399l2.557,4.086h-5.057l-3.057-4.561
			c-1.085-1.627-1.829-2.651-2.229-3.077c-0.4-0.424-0.824-0.715-1.271-0.872c-0.448-0.153-1.157-0.232-2.128-0.232h-0.857v8.742
			L200.382,481.315L200.382,481.315z M204.61,469.23h3.128c2.028,0,3.294-0.088,3.8-0.26c0.504-0.172,0.9-0.466,1.186-0.886
			c0.286-0.419,0.429-0.941,0.429-1.571c0-0.705-0.188-1.271-0.565-1.707c-0.376-0.433-0.907-0.704-1.592-0.817
			c-0.343-0.048-1.371-0.072-3.085-0.072h-3.299v5.313H204.61z"/>
		<path fill="#1D7D4D" d="M221.367,460.375h7.728c1.743,0,3.071,0.134,3.985,0.399c1.228,0.359,2.28,1.005,3.157,1.928
			c0.875,0.925,1.542,2.056,2,3.393c0.457,1.339,0.686,2.988,0.686,4.949c0,1.725-0.214,3.21-0.643,4.457
			c-0.524,1.524-1.271,2.757-2.243,3.7c-0.733,0.714-1.724,1.271-2.971,1.671c-0.934,0.296-2.181,0.443-3.742,0.443h-7.956
			L221.367,460.375L221.367,460.375z M225.595,463.917v13.869h3.157c1.18,0,2.033-0.066,2.557-0.198
			c0.686-0.172,1.255-0.463,1.708-0.872c0.452-0.409,0.821-1.084,1.106-2.021c0.285-0.938,0.429-2.219,0.429-3.835
			c0-1.619-0.143-2.861-0.429-3.729s-0.686-1.543-1.2-2.029c-0.514-0.482-1.167-0.812-1.957-0.982c-0.591-0.134-1.748-0.2-3.471-0.2
			L225.595,463.917L225.595,463.917z"/>
		<path fill="#1D7D4D" d="M242.055,481.315v-20.94h15.527v3.542h-11.299v4.643h10.513v3.528h-10.513v5.698h11.699v3.529H242.055z"/>
		<path fill="#1D7D4D" d="M261.215,481.315v-20.94h4.114l8.57,13.983v-13.983h3.928v20.94h-4.242l-8.442-13.656v13.656H261.215z"/>
		<path fill="#1D7D4D" d="M295.611,481.315v-8.813l-7.671-12.127h4.957l4.928,8.284l4.827-8.284h4.871l-7.698,12.155v8.785H295.611z
			"/>
		<path fill="#1D7D4D" d="M317.63,481.372v-20.94h6.784c2.57,0,4.248,0.105,5.027,0.314c1.199,0.312,2.205,0.998,3.015,2.05
			c0.81,1.053,1.214,2.411,1.214,4.077c0,1.287-0.232,2.367-0.699,3.243c-0.466,0.877-1.06,1.562-1.777,2.062
			c-0.721,0.501-1.45,0.831-2.192,0.993c-1.01,0.2-2.474,0.301-4.385,0.301h-2.759v7.898L317.63,481.372L317.63,481.372z
			 M321.857,463.975v5.941h2.313c1.666,0,2.78-0.109,3.343-0.327c0.562-0.22,1.002-0.562,1.321-1.029
			c0.317-0.467,0.479-1.01,0.479-1.629c0-0.762-0.226-1.39-0.672-1.886c-0.449-0.495-1.015-0.805-1.699-0.928
			c-0.506-0.095-1.521-0.146-3.043-0.146L321.857,463.975L321.857,463.975z"/>
		<path fill="#1D7D4D" d="M355.547,481.315h-4.599l-1.829-4.76h-8.37l-1.729,4.76h-4.483l8.155-20.94h4.472L355.547,481.315z
			 M347.762,473.03l-2.884-7.771l-2.829,7.771H347.762z"/>
		<path fill="#1D7D4D" d="M362.262,481.315v-17.398h-6.213v-3.542h16.643v3.542h-6.2v17.398H362.262z"/>
		<path fill="#1D7D4D" d="M375.252,481.315v-20.94h8.898c2.238,0,3.863,0.188,4.879,0.564c1.015,0.376,1.826,1.044,2.435,2.007
			c0.609,0.962,0.914,2.061,0.914,3.299c0,1.572-0.462,2.869-1.386,3.893c-0.924,1.024-2.305,1.669-4.143,1.938
			c0.916,0.534,1.67,1.12,2.264,1.758c0.597,0.638,1.398,1.771,2.408,3.399l2.556,4.086h-5.056l-3.059-4.561
			c-1.085-1.627-1.828-2.651-2.229-3.077c-0.399-0.424-0.822-0.715-1.271-0.872c-0.446-0.153-1.155-0.232-2.127-0.232h-0.856v8.742
			L375.252,481.315L375.252,481.315z M379.48,469.23h3.127c2.029,0,3.295-0.088,3.8-0.26c0.506-0.172,0.899-0.466,1.187-0.886
			c0.286-0.419,0.428-0.941,0.428-1.571c0-0.705-0.188-1.271-0.563-1.707c-0.375-0.433-0.905-0.704-1.592-0.817
			c-0.343-0.048-1.372-0.072-3.086-0.072h-3.3L379.48,469.23L379.48,469.23z"/>
		<path fill="#1D7D4D" d="M396.065,481.315v-20.94h4.229v20.94H396.065z"/>
		<path fill="#1D7D4D" d="M423.262,481.315h-4.601l-1.829-4.76h-8.369l-1.728,4.76h-4.486l8.157-20.94h4.47L423.262,481.315z
			 M415.479,473.03l-2.888-7.771l-2.827,7.771H415.479z"/>
	</g>
</g>
<g id="_x30_4">
</g>
<g id="_x30_5">
</g>
<rect x="687.5" y="186.5" fill="none" width="4000" height="463.5"/>
<g enable-background="new    ">
	<path fill="#1D7D4D" d="M832.121,300.893l23.303,5.886c-4.885,19.14-13.675,33.734-26.366,43.782
		c-12.693,10.051-28.209,15.075-46.545,15.075c-18.979,0-34.414-3.862-46.305-11.591c-11.892-7.728-20.942-18.919-27.146-33.573
		c-6.207-14.654-9.309-30.39-9.309-47.206c0-18.337,3.502-34.333,10.51-47.986c7.006-13.652,16.976-24.023,29.909-31.111
		c12.931-7.086,27.165-10.63,42.702-10.63c17.616,0,32.432,4.485,44.443,13.453c12.012,8.97,20.378,21.582,25.104,37.837
		l-22.942,5.405c-4.084-12.812-10.011-22.141-17.777-27.987c-7.768-5.845-17.537-8.769-29.309-8.769
		c-13.534,0-24.846,3.243-33.933,9.729c-9.089,6.486-15.477,15.195-19.159,26.125c-3.684,10.932-5.525,22.203-5.525,33.813
		c0,14.976,2.181,28.048,6.546,39.218c4.364,11.172,11.15,19.52,20.36,25.045c9.208,5.525,19.177,8.288,29.909,8.288
		c13.051,0,24.102-3.763,33.152-11.291C822.792,326.879,828.917,315.708,832.121,300.893z"/>
	<path fill="#1D7D4D" d="M865.777,362.633l67.626-176.092h25.104l72.07,176.092h-26.546l-20.54-53.332H909.86l-19.339,53.332
		H865.777z M916.586,290.322h59.698l-18.378-48.768c-5.606-14.813-9.771-26.985-12.492-36.516
		c-2.243,11.291-5.405,22.503-9.489,33.633L916.586,290.322z"/>
	<path fill="#1D7D4D" d="M1050.54,362.633V186.541h78.076c15.694,0,27.627,1.582,35.795,4.744
		c8.168,3.165,14.694,8.75,19.579,16.757c4.884,8.009,7.327,16.857,7.327,26.546c0,12.492-4.044,23.023-12.132,31.591
		c-8.089,8.569-20.582,14.015-37.477,16.336c6.166,2.964,10.85,5.886,14.054,8.769c6.805,6.246,13.252,14.054,19.339,23.423
		l30.63,47.927h-29.309l-23.303-36.636c-6.807-10.57-12.414-18.657-16.816-24.264c-4.405-5.604-8.348-9.528-11.832-11.771
		c-3.483-2.241-7.027-3.803-10.63-4.685c-2.643-0.56-6.967-0.841-12.973-0.841h-27.026v78.196H1050.54z M1073.843,264.257h50.089
		c10.649,0,18.979-1.1,24.984-3.304c6.006-2.201,10.57-5.724,13.693-10.57c3.123-4.844,4.685-10.108,4.685-15.795
		c0-8.327-3.023-15.174-9.069-20.54c-6.047-5.364-15.597-8.048-28.648-8.048h-55.734V264.257z"/>
	<path fill="#1D7D4D" d="M1209.479,362.633l67.626-176.092h25.104l72.07,176.092h-26.546l-20.54-53.332h-73.632l-19.339,53.332
		H1209.479z M1260.288,290.322h59.698l-18.378-48.768c-5.606-14.813-9.771-26.985-12.492-36.516
		c-2.243,11.291-5.405,22.503-9.489,33.633L1260.288,290.322z"/>
	<path fill="#1D7D4D" d="M1392.92,362.633V186.541h66.064c13.453,0,24.243,1.783,32.371,5.346c8.127,3.563,14.493,9.05,19.1,16.455
		c4.604,7.408,6.906,15.156,6.906,23.243c0,7.528-2.042,14.615-6.126,21.261c-4.084,6.647-10.251,12.012-18.498,16.096
		c10.649,3.123,18.838,8.449,24.563,15.976c5.725,7.528,8.589,16.417,8.589,26.666c0,8.249-1.741,15.915-5.226,23.003
		c-3.482,7.086-7.788,12.552-12.912,16.396c-5.126,3.844-11.552,6.747-19.279,8.708c-7.729,1.964-17.197,2.943-28.407,2.943H1392.92
		z M1416.223,260.533h38.077c10.33,0,17.736-0.68,22.222-2.042c5.925-1.761,10.391-4.685,13.393-8.769
		c3.004-4.084,4.505-9.208,4.505-15.375c0-5.845-1.402-10.99-4.204-15.436c-2.804-4.443-6.808-7.486-12.012-9.129
		c-5.206-1.64-14.135-2.462-26.786-2.462h-35.194V260.533z M1416.223,341.853h43.843c7.526,0,12.812-0.279,15.855-0.841
		c5.364-0.961,9.85-2.562,13.453-4.805c3.604-2.241,6.565-5.505,8.889-9.789c2.321-4.283,3.483-9.229,3.483-14.835
		c0-6.565-1.682-12.271-5.045-17.116c-3.363-4.845-8.029-8.247-13.994-10.211c-5.966-1.961-14.555-2.942-25.765-2.942h-40.72
		V341.853z"/>
	<path fill="#1D7D4D" d="M1562.909,362.633V186.541h23.303v176.092H1562.909z"/>
	<path fill="#1D7D4D" d="M1628.036,362.633V186.541h23.903l92.49,138.255V186.541h22.342v176.092h-23.903l-92.49-138.375v138.375
		H1628.036z"/>
	<path fill="#1D7D4D" d="M1807.394,362.633V186.541h127.324v20.78h-104.021v53.933h97.415v20.66h-97.415v59.938h108.105v20.78
		H1807.394z"/>
	<path fill="#1D7D4D" d="M1972.338,362.633V186.541h78.076c15.694,0,27.627,1.582,35.795,4.744
		c8.168,3.165,14.693,8.75,19.579,16.757c4.884,8.009,7.327,16.857,7.327,26.546c0,12.492-4.045,23.023-12.132,31.591
		c-8.089,8.569-20.581,14.015-37.477,16.336c6.165,2.964,10.85,5.886,14.054,8.769c6.806,6.246,13.252,14.054,19.339,23.423
		l30.63,47.927h-29.309l-23.303-36.636c-6.808-10.57-12.413-18.657-16.816-24.264c-4.405-5.604-8.349-9.528-11.831-11.771
		c-3.484-2.241-7.027-3.803-10.631-4.685c-2.643-0.56-6.967-0.841-12.973-0.841h-27.026v78.196H1972.338z M1995.641,264.257h50.089
		c10.649,0,18.979-1.1,24.984-3.304c6.006-2.201,10.57-5.724,13.693-10.57c3.123-4.844,4.685-10.108,4.685-15.795
		c0-8.327-3.023-15.174-9.069-20.54c-6.047-5.364-15.596-8.048-28.647-8.048h-55.734V264.257z"/>
	<path fill="#1D7D4D" d="M2143.528,276.869c0-29.228,7.847-52.11,23.543-68.646c15.694-16.535,35.954-24.805,60.779-24.805
		c16.255,0,30.909,3.885,43.963,11.651c13.052,7.769,23.003,18.6,29.849,32.491c6.848,13.895,10.271,29.65,10.271,47.267
		c0,17.858-3.604,33.834-10.811,47.927c-7.207,14.095-17.417,24.765-30.63,32.012c-13.213,7.248-27.468,10.87-42.762,10.87
		c-16.576,0-31.392-4.003-44.443-12.012c-13.054-8.007-22.942-18.938-29.669-32.792
		C2146.892,306.979,2143.528,292.325,2143.528,276.869z M2167.552,277.229c0,21.222,5.706,37.938,17.116,50.149
		c11.412,12.212,25.725,18.317,42.942,18.317c17.537,0,31.97-6.165,43.302-18.498c11.331-12.331,16.997-29.828,16.997-52.491
		c0-14.333-2.423-26.846-7.267-37.537c-4.847-10.689-11.934-18.979-21.262-24.863c-9.329-5.887-19.8-8.829-31.41-8.829
		c-16.497,0-30.689,5.666-42.582,16.997C2173.498,231.807,2167.552,250.725,2167.552,277.229z"/>
	<path fill="#1D7D4D" d="M2335.018,306.058l21.981-1.922c1.04,8.81,3.463,16.036,7.267,21.681
		c3.803,5.646,9.709,10.211,17.718,13.693c8.007,3.484,17.016,5.226,27.026,5.226c8.889,0,16.735-1.321,23.543-3.964
		c6.806-2.643,11.871-6.265,15.195-10.871c3.321-4.604,4.984-9.628,4.984-15.074c0-5.525-1.603-10.349-4.805-14.475
		c-3.204-4.123-8.489-7.586-15.855-10.39c-4.726-1.841-15.176-4.703-31.351-8.589c-16.177-3.883-27.507-7.546-33.993-10.99
		c-8.408-4.403-14.675-9.868-18.799-16.396c-4.125-6.525-6.186-13.832-6.186-21.921c0-8.889,2.522-17.195,7.567-24.925
		c5.045-7.727,12.411-13.592,22.102-17.597c9.688-4.003,20.459-6.006,32.312-6.006c13.052,0,24.564,2.103,34.533,6.306
		c9.971,4.205,17.637,10.391,23.003,18.559c5.364,8.168,8.247,17.417,8.648,27.747l-22.342,1.682
		c-1.201-11.13-5.267-19.538-12.192-25.225c-6.927-5.685-17.157-8.528-30.689-8.528c-14.095,0-24.365,2.582-30.811,7.748
		c-6.446,5.164-9.669,11.392-9.669,18.678c0,6.327,2.282,11.531,6.847,15.615c4.483,4.084,16.195,8.27,35.135,12.553
		c18.937,4.284,31.93,8.028,38.978,11.23c10.249,4.726,17.816,10.711,22.702,17.957c4.884,7.249,7.327,15.597,7.327,25.045
		c0,9.369-2.684,18.197-8.048,26.486c-5.366,8.287-13.074,14.734-23.123,19.338c-10.05,4.604-21.361,6.907-33.933,6.907
		c-15.937,0-29.29-2.323-40.06-6.967c-10.771-4.644-19.219-11.631-25.344-20.96C2338.561,328.381,2335.337,317.829,2335.018,306.058
		z"/>
	<path fill="#1D7D4D" d="M2577.34,362.633V186.541h60.659c13.693,0,24.144,0.841,31.351,2.522
		c10.09,2.323,18.697,6.527,25.825,12.612c9.288,7.849,16.234,17.879,20.841,30.09c4.604,12.212,6.906,26.166,6.906,41.86
		c0,13.374-1.562,25.225-4.685,35.555s-7.128,18.879-12.012,25.646c-4.886,6.768-10.23,12.092-16.036,15.975
		c-5.807,3.886-12.812,6.828-21.02,8.829c-8.21,2.003-17.639,3.003-28.288,3.003H2577.34z M2600.643,341.853h37.597
		c11.61,0,20.72-1.081,27.327-3.243c6.605-2.162,11.87-5.204,15.795-9.129c5.525-5.525,9.829-12.952,12.912-22.281
		c3.082-9.328,4.625-20.64,4.625-33.934c0-18.417-3.023-32.57-9.068-42.461c-6.048-9.89-13.394-16.517-22.042-19.88
		c-6.246-2.402-16.297-3.604-30.149-3.604h-36.996V341.853z"/>
	<path fill="#1D7D4D" d="M2756.458,362.633V186.541h127.324v20.78h-104.021v53.933h97.415v20.66h-97.415v59.938h108.105v20.78
		H2756.458z"/>
	<path fill="#1D7D4D" d="M3116.015,300.893l23.303,5.886c-4.886,19.14-13.675,33.734-26.365,43.782
		c-12.693,10.051-28.209,15.075-46.546,15.075c-18.979,0-34.413-3.862-46.306-11.591c-11.891-7.728-20.941-18.919-27.146-33.573
		c-6.206-14.654-9.309-30.39-9.309-47.206c0-18.337,3.502-34.333,10.51-47.986c7.007-13.652,16.977-24.023,29.91-31.111
		c12.931-7.086,27.165-10.63,42.701-10.63c17.616,0,32.432,4.485,44.443,13.453c12.012,8.97,20.379,21.582,25.104,37.837
		l-22.942,5.405c-4.084-12.812-10.011-22.141-17.777-27.987c-7.769-5.845-17.537-8.769-29.309-8.769
		c-13.534,0-24.846,3.243-33.934,9.729c-9.089,6.486-15.476,15.195-19.158,26.125c-3.685,10.932-5.525,22.203-5.525,33.813
		c0,14.976,2.181,28.048,6.547,39.218c4.363,11.172,11.149,19.52,20.359,25.045c9.208,5.525,19.178,8.288,29.909,8.288
		c13.052,0,24.103-3.763,33.152-11.291C3106.685,326.879,3112.811,315.708,3116.015,300.893z"/>
	<path fill="#1D7D4D" d="M3169.73,362.633V186.541h23.303v72.311h91.529v-72.311h23.303v176.092h-23.303v-83.001h-91.529v83.001
		H3169.73z"/>
	<path fill="#1D7D4D" d="M3351.61,362.633V186.541h23.303v176.092H3351.61z"/>
	<path fill="#1D7D4D" d="M3416.017,362.633V186.541h23.303v155.312h86.725v20.78H3416.017z"/>
	<path fill="#1D7D4D" d="M3555.256,362.633V186.541h127.324v20.78h-104.021v53.933h97.415v20.66h-97.415v59.938h108.105v20.78
		H3555.256z"/>
</g>
</svg>
