<?xml version="1.0" standalone="no"?>
<!DOCTYPE svg PUBLIC "-//W3C//DTD SVG 20010904//EN"
 "http://www.w3.org/TR/2001/REC-SVG-20010904/DTD/svg10.dtd">
<svg version="1.0" xmlns="http://www.w3.org/2000/svg"
 width="300.000000pt" height="310.000000pt" viewBox="0 0 300.000000 310.000000"
 preserveAspectRatio="xMidYMid meet">
<metadata>
Created by potrace 1.10, written by Peter Selinger 2001-2011
</metadata>
<g transform="translate(0.000000,310.000000) scale(0.100000,-0.100000)"
fill="#000000" stroke="none">
<path d="M1330 3044 c-14 -3 -72 -14 -130 -25 -368 -74 -706 -313 -913 -644
-204 -327 -267 -728 -176 -1113 38 -159 126 -350 227 -490 30 -42 56 -83 57
-92 1 -8 7 -14 12 -13 5 1 44 -33 87 -76 l77 -78 -27 -33 -28 -33 39 -34 c71
-60 212 -150 308 -196 226 -108 370 -140 637 -141 141 -1 206 3 273 17 281 57
540 191 735 382 l96 93 -18 34 -19 35 59 70 c68 81 157 226 202 328 153 349
152 821 -3 1159 -14 31 -23 62 -19 69 4 6 4 9 -1 5 -4 -4 -34 35 -65 86 -79
130 -133 197 -241 301 -218 209 -483 339 -786 384 -67 10 -326 13 -383 5z
m318 -35 c-7 -5 13 -7 44 -5 31 1 55 -1 53 -5 -6 -8 26 -22 33 -14 3 3 -1 5
-8 5 -7 0 -11 2 -8 5 3 3 24 -2 48 -10 23 -8 53 -15 67 -15 16 0 22 -4 17 -12
-4 -7 -3 -8 4 -4 15 9 93 -14 86 -25 -3 -5 1 -6 9 -4 18 7 107 -33 114 -51 3
-8 9 -14 15 -14 5 0 7 4 4 8 -3 5 1 9 9 9 10 0 11 -5 4 -19 -7 -14 -6 -20 5
-24 8 -3 17 -13 21 -22 5 -14 4 -14 -13 1 -10 9 -24 17 -31 17 -6 0 -24 9 -40
20 -15 12 -39 22 -54 24 -14 1 -33 8 -42 16 -8 7 -18 10 -22 6 -3 -3 -1 -6 5
-6 7 0 12 -4 12 -10 0 -5 -7 -10 -15 -10 -9 0 -27 -11 -40 -25 -14 -13 -26
-21 -26 -17 -4 26 -3 39 5 57 5 11 5 17 1 13 -4 -4 -12 -2 -19 3 -48 40 -61
49 -72 49 -7 0 -14 5 -16 11 -3 8 -10 8 -25 -2 -19 -11 -25 -11 -43 6 -21 19
-21 19 -14 -1 7 -18 7 -18 -13 -1 -22 19 -22 19 -185 17 -82 -1 -111 -5 -123
-16 -11 -11 -15 -12 -15 -3 0 10 -3 10 -12 1 -7 -7 -21 -12 -32 -11 -21 0 -21
0 -1 9 14 5 6 8 -27 7 -27 0 -48 -4 -48 -10 0 -5 -7 -7 -14 -4 -10 4 -13 1
-10 -7 4 -9 -10 -13 -53 -15 -64 -2 -123 -17 -123 -32 0 -6 -4 -7 -10 -4 -5 3
-10 1 -10 -4 0 -6 -5 -11 -11 -11 -5 0 -7 4 -4 10 14 22 -66 -20 -98 -52 -9
-9 -24 -15 -32 -12 -8 4 -15 2 -15 -4 0 -6 -11 -9 -25 -8 -13 2 -22 -1 -19 -5
3 -5 2 -9 -3 -9 -4 0 -20 -11 -36 -24 -20 -18 -27 -32 -25 -54 1 -17 4 -29 6
-27 3 2 16 -18 30 -44 38 -75 80 -88 147 -45 22 15 31 23 20 19 -15 -5 -17 -3
-8 5 6 7 26 13 43 15 18 1 40 9 51 18 10 9 27 14 36 11 15 -5 16 -4 3 6 -12 9
-10 10 13 6 15 -4 27 -2 27 4 0 5 7 10 16 10 8 0 12 4 9 10 -3 5 3 15 14 21
10 7 17 18 14 24 -2 7 3 15 11 18 9 4 16 3 16 -1 0 -13 54 -29 85 -25 17 2 38
4 48 5 9 1 17 6 17 12 0 5 20 6 46 2 26 -3 54 -1 66 5 16 8 19 8 13 -1 -5 -8
-3 -11 6 -8 8 3 13 12 11 19 -2 8 6 4 18 -8 22 -24 36 -31 25 -12 -4 6 0 9 11
7 12 -2 18 2 16 10 -2 9 7 6 24 -7 26 -20 28 -20 52 -5 23 15 26 15 37 0 33
-45 135 -54 156 -14 6 11 17 17 24 14 8 -3 16 0 19 7 3 7 3 0 0 -14 -6 -27 27
-95 39 -82 4 3 7 1 7 -5 0 -6 18 -16 40 -22 22 -6 40 -16 40 -21 0 -6 6 -9 14
-6 8 3 16 3 18 -1 7 -16 78 -63 86 -58 6 3 29 -12 53 -34 24 -22 47 -40 50
-40 14 0 49 -39 50 -56 0 -12 3 -14 6 -6 7 18 43 -14 43 -38 0 -10 7 -21 16
-24 8 -3 12 -2 9 4 -3 6 -4 10 -1 10 3 0 15 -18 26 -39 22 -45 65 -91 83 -91
8 0 8 -3 -2 -9 -11 -7 -10 -13 4 -35 10 -14 13 -26 9 -26 -5 0 -1 -5 9 -11 9
-5 17 -18 17 -28 0 -10 9 -26 19 -35 11 -10 18 -23 17 -29 -2 -7 -1 -9 1 -5 2
3 16 4 29 2 14 -3 23 -1 20 5 -3 5 1 14 9 21 8 7 12 24 10 40 -3 23 0 28 12
23 11 -4 14 -2 9 5 -4 7 -3 12 2 12 5 0 21 11 36 25 21 19 25 29 17 39 -6 7
-7 16 -3 20 4 4 2 6 -3 5 -16 -5 -55 11 -55 22 0 6 5 7 11 3 8 -4 8 0 0 15 -9
16 -9 21 1 21 8 1 7 5 -4 14 -10 7 -18 18 -18 25 0 6 -7 12 -15 12 -8 1 -21 2
-27 3 -8 1 -12 14 -10 34 2 25 -7 45 -37 85 -21 29 -49 62 -62 73 -38 35 -69
75 -64 83 2 4 -2 8 -10 8 -8 0 -11 -5 -8 -11 4 -6 0 -5 -9 1 -8 7 -18 10 -21
6 -4 -3 -7 -1 -7 6 0 6 -11 16 -25 21 -14 5 -30 21 -37 35 -6 14 -17 25 -25
25 -18 0 -94 70 -87 81 3 5 -5 9 -17 9 -17 0 -20 3 -12 11 14 14 57 -7 47 -23
-4 -7 -3 -8 4 -4 14 8 68 -20 99 -51 12 -13 24 -23 27 -23 9 0 80 -51 99 -71
10 -11 15 -25 11 -32 -6 -9 -5 -9 7 0 12 10 17 8 27 -8 7 -11 10 -24 7 -29 -3
-6 1 -7 9 -4 9 3 16 1 16 -5 0 -6 8 -8 18 -4 15 6 16 5 2 -12 -8 -10 -10 -16
-3 -12 11 7 83 -67 83 -85 0 -5 4 -7 9 -3 5 3 12 -4 16 -15 3 -11 11 -20 16
-20 5 0 9 -5 9 -11 0 -6 7 -17 16 -26 8 -9 13 -22 10 -29 -3 -8 1 -14 8 -14 7
0 21 -17 32 -37 10 -21 25 -44 32 -51 7 -8 9 -18 6 -24 -4 -6 4 -20 17 -30 13
-11 18 -17 11 -13 -7 4 -4 -8 8 -27 11 -18 20 -41 20 -51 0 -11 4 -15 12 -11
8 5 9 -2 5 -24 -4 -18 -3 -32 1 -32 11 0 31 -58 38 -113 4 -26 10 -47 14 -47
4 0 7 -6 7 -12 5 -80 13 -146 18 -159 14 -36 -5 -383 -24 -439 -5 -14 -19 -60
-32 -102 -12 -43 -26 -78 -30 -78 -5 0 -6 -7 -3 -15 4 -8 1 -15 -6 -15 -6 0
-8 -4 -5 -10 3 -5 1 -10 -6 -10 -8 0 -7 -5 2 -17 10 -11 10 -14 2 -9 -9 5 -13
0 -13 -14 0 -12 -4 -18 -10 -15 -6 3 -7 -1 -4 -9 4 -10 1 -16 -7 -16 -7 0 -10
-3 -6 -6 3 -4 0 -13 -8 -20 -8 -8 -11 -22 -8 -31 5 -13 2 -15 -11 -10 -9 4
-15 3 -12 -2 3 -4 -3 -17 -13 -27 -9 -11 -16 -25 -13 -32 2 -7 -2 -10 -12 -6
-11 4 -16 0 -17 -15 -2 -36 -3 -39 -31 -64 -15 -14 -25 -32 -22 -40 2 -8 -3
-20 -13 -28 -16 -13 -17 -12 -4 4 8 9 12 20 9 23 -3 3 -15 -11 -26 -30 -19
-33 -42 -41 -59 -21 -4 4 -1 5 7 1 8 -4 6 0 -5 8 -91 71 -152 126 -140 126 6
0 -5 8 -22 16 -18 9 -30 20 -27 25 3 5 -1 9 -9 9 -8 0 -21 8 -30 18 -15 17
-15 21 8 55 14 20 36 48 50 63 14 15 25 35 25 45 0 10 11 26 23 36 23 18 61
101 98 213 23 71 49 201 43 212 -3 4 -1 8 4 8 25 0 -18 352 -52 419 -7 14 -16
41 -19 59 -4 19 -16 46 -27 62 -11 15 -20 34 -20 42 -1 19 -26 49 -34 41 -4
-4 -4 0 0 10 3 9 1 17 -5 17 -6 0 -8 7 -5 15 5 11 2 14 -12 9 -11 -4 -16 -4
-12 1 4 4 0 15 -10 24 -19 16 -36 50 -34 63 1 5 -4 7 -11 5 -6 -1 -11 4 -10
11 2 6 -3 12 -10 12 -8 0 -20 11 -27 25 -7 14 -18 25 -24 25 -6 0 -19 14 -28
30 -9 17 -24 30 -33 30 -10 0 -13 5 -9 12 4 7 3 8 -4 4 -13 -8 -54 29 -44 40
4 4 2 4 -4 1 -13 -7 -86 30 -119 60 -11 10 -28 17 -39 15 -11 -3 -16 0 -12 7
5 7 -2 11 -16 11 -13 0 -28 4 -33 9 -17 15 -137 51 -148 44 -5 -3 -7 -1 -4 4
4 7 -6 13 -26 15 -17 3 -41 8 -52 12 -17 7 -17 6 -5 -4 12 -9 9 -10 -15 -5
-41 10 -266 16 -279 7 -6 -3 -27 -5 -46 -5 -31 2 -32 1 -10 -7 21 -7 18 -8
-20 -9 -43 -1 -108 -21 -197 -62 -23 -10 -46 -19 -51 -19 -5 0 -17 -9 -26 -19
-10 -11 -25 -17 -34 -14 -10 4 -13 2 -8 -5 4 -7 1 -12 -7 -12 -8 0 -17 -6 -20
-14 -3 -8 -20 -17 -37 -21 -22 -5 -30 -11 -26 -21 3 -8 2 -13 -3 -10 -5 3 -11
-1 -15 -9 -3 -8 -11 -15 -18 -15 -9 0 -8 3 2 10 8 5 11 10 5 10 -16 0 -40 -18
-33 -26 4 -3 -16 -26 -45 -51 -29 -24 -52 -49 -52 -56 0 -7 -5 -12 -12 -12
-13 0 -44 -37 -67 -83 -10 -19 -21 -30 -28 -26 -7 4 -8 3 -4 -5 4 -6 0 -23 -9
-37 -9 -14 -14 -28 -12 -31 3 -2 -2 -13 -11 -23 -34 -40 -90 -203 -99 -287 -3
-24 -8 -41 -12 -39 -8 5 -6 -185 3 -254 22 -163 64 -310 89 -310 5 0 7 -7 3
-15 -6 -17 38 -88 48 -77 4 3 5 0 1 -8 -3 -8 6 -28 20 -44 14 -16 25 -33 25
-38 0 -11 5 -17 90 -114 14 -16 24 -33 22 -37 -1 -5 2 -6 7 -3 5 4 12 2 16 -4
4 -6 10 -8 14 -6 3 3 7 -4 7 -15 0 -13 -5 -18 -14 -14 -9 3 -12 0 -9 -9 4 -9
-2 -17 -14 -21 -10 -4 -19 -12 -19 -18 0 -7 -18 -31 -40 -54 -29 -30 -46 -40
-58 -36 -15 6 -15 5 -3 -11 12 -14 12 -19 1 -29 -10 -10 -11 -9 -5 3 8 13 6
13 -8 2 -9 -8 -19 -22 -22 -32 -3 -10 -17 -26 -32 -35 -15 -10 -22 -12 -18 -4
6 9 3 10 -11 5 -10 -4 -15 -4 -11 0 4 4 -10 17 -30 29 -21 11 -39 27 -39 35
-3 32 -5 34 -14 20 -8 -13 -10 -12 -10 3 0 10 -6 20 -14 23 -9 3 -12 12 -9 21
4 11 2 14 -5 9 -7 -4 -12 -3 -12 3 0 5 -14 25 -31 43 -17 18 -37 47 -44 63 -7
17 -22 40 -33 53 -12 13 -18 31 -15 39 4 10 2 14 -4 10 -6 -4 -18 9 -28 31
-10 20 -27 52 -38 71 -11 19 -22 46 -23 59 -2 14 -7 28 -11 31 -11 8 -61 193
-67 246 -2 22 -7 63 -10 90 -15 133 -16 168 -6 284 6 69 14 133 17 141 8 19
12 38 16 70 2 14 6 30 9 35 3 6 11 29 17 53 7 23 17 42 24 42 8 0 7 3 -2 9
-12 8 -10 16 12 48 29 43 34 58 15 48 -7 -4 -5 0 4 8 10 8 18 19 18 25 0 13
31 72 48 90 6 7 12 19 12 27 0 7 7 16 16 19 8 3 13 10 10 15 -8 13 34 62 46
55 7 -4 8 -2 4 5 -5 7 10 32 38 64 26 29 66 73 89 100 23 26 48 47 55 47 7 0
11 4 7 9 -3 5 4 12 15 16 11 3 20 10 20 15 0 4 9 10 20 13 11 3 20 11 20 19 0
7 14 19 30 26 17 8 27 18 24 24 -4 6 -3 8 3 5 5 -3 21 5 35 18 20 18 28 21 38
12 10 -9 11 -9 6 1 -4 7 -1 15 8 18 9 3 14 10 11 14 -3 5 5 6 17 2 15 -4 19
-2 13 7 -5 10 -2 11 14 6 17 -5 20 -3 14 11 -5 13 -2 16 13 12 11 -3 25 1 32
8 7 7 42 22 78 33 36 12 71 27 79 34 11 12 57 24 200 53 17 3 54 8 84 10 30 2
57 7 60 10 3 3 63 4 133 3 71 -2 123 -6 116 -10z m-154 -75 c22 -21 20 -34 -4
-34 -11 0 -20 5 -20 10 0 12 -37 13 -44 1 -3 -5 13 -15 36 -23 36 -11 44 -18
46 -43 4 -34 -18 -55 -58 -55 -34 0 -69 35 -52 52 9 9 16 7 31 -6 12 -11 27
-16 36 -12 23 9 13 30 -16 34 -31 5 -59 30 -59 53 0 36 75 53 104 23z m76 -64
c0 -73 -2 -80 -20 -80 -18 0 -20 7 -20 80 0 73 2 80 20 80 18 0 20 -7 20 -80z
m144 60 c13 -13 -4 -32 -24 -27 -20 5 -30 -26 -30 -90 0 -30 -3 -34 -22 -31
-24 3 -25 6 -15 79 6 41 4 47 -13 52 -11 3 -20 13 -20 22 0 15 7 16 58 10 31
-4 61 -10 66 -15z m-367 -14 c35 -30 40 -99 8 -122 -59 -43 -118 -17 -123 55
-3 45 9 68 43 81 32 14 42 12 72 -14z m491 -13 c22 -19 25 -30 23 -74 -3 -61
-87 -93 -131 -49 -26 26 -26 80 1 114 25 31 76 35 107 9z m-644 -19 c30 -29
18 -66 -27 -83 -24 -9 -26 -14 -17 -31 12 -23 6 -40 -15 -40 -9 0 -22 26 -35
66 -25 83 -25 80 8 92 40 15 69 14 86 -4z m-141 -38 c4 -10 -5 -18 -29 -26
-18 -6 -34 -18 -34 -26 0 -17 8 -17 40 1 33 19 40 18 40 -3 0 -10 -12 -22 -30
-29 -21 -8 -28 -16 -24 -27 5 -14 9 -14 36 0 29 15 58 13 58 -4 0 -8 -83 -52
-99 -52 -12 0 -73 131 -65 139 6 6 84 39 95 40 4 1 9 -5 12 -13z m1001 -17
c29 -23 35 -59 10 -59 -9 0 -24 10 -33 22 -22 26 -48 19 -57 -17 -9 -35 11
-58 37 -42 16 10 21 9 29 -3 11 -18 -15 -50 -40 -50 -32 0 -70 39 -70 71 0 82
66 124 124 78z m166 -96 c0 -23 -21 -24 -55 -3 -26 16 -35 18 -35 8 0 -8 14
-22 31 -32 24 -14 28 -21 18 -32 -9 -12 -16 -10 -41 8 -25 17 -32 18 -39 7 -6
-9 -4 -17 7 -24 41 -25 54 -40 45 -53 -6 -11 -19 -7 -60 18 -28 17 -51 33 -51
35 0 2 10 20 23 38 12 19 30 49 39 66 l17 31 51 -27 c27 -16 50 -33 50 -40z
m-1302 41 c30 -21 55 -71 48 -99 -3 -12 -24 -34 -46 -49 l-40 -26 -23 37 c-45
73 -61 102 -56 106 6 6 83 46 89 47 3 0 16 -7 28 -16z m1350 -66 c6 -8 7 -29
2 -58 -5 -25 -7 -46 -5 -48 1 -2 13 11 25 27 23 33 50 41 50 16 0 -15 -75
-117 -90 -123 -4 -1 -13 4 -20 13 -9 11 -10 25 -2 55 12 47 0 52 -25 10 -19
-33 -31 -38 -39 -16 -5 14 73 136 87 136 3 0 11 -6 17 -12z m182 -175 c0 -17
-22 -17 -39 0 -10 10 -20 3 -53 -31 -23 -25 -46 -41 -54 -38 -23 9 -16 26 27
68 32 32 38 42 29 54 -7 7 -9 21 -6 31 6 14 14 9 51 -27 25 -24 45 -50 45 -57z
m-689 54 c345 -90 617 -354 714 -697 37 -128 46 -345 20 -471 -21 -108 -56
-205 -100 -286 -37 -67 -143 -213 -154 -213 -4 0 -22 11 -41 25 l-33 24 -71
-61 c-186 -161 -373 -233 -601 -232 -190 1 -362 57 -513 169 l-63 46 -30 -26
c-28 -23 -57 -26 -43 -4 3 5 0 8 -7 7 -7 -2 -13 4 -14 12 -1 8 -6 14 -13 12
-25 -5 -177 190 -167 216 2 7 0 10 -5 7 -5 -3 -20 16 -33 42 -134 266 -137
634 -7 893 22 44 43 80 46 80 3 0 2 -5 -2 -12 -4 -7 -3 -8 4 -4 6 4 9 12 6 20
-3 7 15 39 40 72 176 233 395 363 691 408 79 12 282 -3 376 -27z m747 -109
c18 -23 32 -45 32 -50 0 -18 -42 -49 -59 -43 -14 4 -20 -1 -25 -21 -4 -14 -5
-28 -3 -31 3 -2 35 3 73 12 54 12 69 13 76 3 11 -18 5 -29 -43 -93 -33 -45
-44 -53 -56 -44 -11 10 -11 14 2 28 13 15 13 20 -1 40 -10 14 -23 21 -34 18
-27 -7 -64 47 -50 72 12 24 13 61 2 61 -5 0 -17 -9 -27 -20 -14 -15 -21 -17
-32 -8 -7 6 -12 15 -11 20 3 9 109 97 118 98 3 0 20 -19 38 -42z m159 -238 c2
-10 -17 -23 -52 -39 -31 -13 -54 -27 -53 -30 31 -58 32 -62 18 -71 -11 -7 -21
3 -40 42 -14 29 -21 53 -15 55 6 2 33 16 60 33 53 31 78 34 82 10z m-262
-1496 c213 -186 201 -157 103 -249 -207 -193 -421 -308 -693 -371 -109 -25
-138 -28 -310 -28 -160 0 -206 3 -293 22 -135 30 -238 64 -339 112 -90 44
-275 164 -310 202 l-22 23 127 145 c70 80 154 174 188 209 l61 65 43 -37 c65
-55 209 -125 318 -154 198 -52 434 -28 620 64 74 36 192 123 241 176 l24 27
46 -37 c25 -21 114 -97 196 -169z"/>
<path d="M622 2642 c-13 -2 -21 -9 -19 -15 2 -6 -5 -19 -15 -29 -10 -10 -18
-24 -18 -31 0 -13 -67 -52 -83 -49 -5 2 -6 -2 -2 -8 3 -5 -3 -20 -14 -32 -12
-12 -21 -26 -21 -30 0 -5 -4 -6 -10 -3 -6 3 -7 -1 -4 -9 3 -9 1 -16 -5 -16 -6
0 -8 -6 -5 -14 3 -8 0 -17 -7 -22 -8 -4 -10 -3 -5 4 4 7 2 12 -4 12 -7 0 -10
-7 -6 -15 5 -13 -23 -57 -79 -127 -7 -9 -11 -19 -8 -22 4 -3 2 -6 -4 -6 -10 0
-24 -43 -27 -80 0 -8 -7 -14 -15 -12 -7 2 -11 -3 -9 -10 5 -16 -27 -49 -38
-40 -5 4 -2 -1 5 -10 9 -12 10 -22 3 -30 -5 -7 -9 -24 -8 -37 2 -13 -6 -40
-16 -59 -10 -20 -18 -56 -18 -80 0 -30 -3 -41 -12 -36 -8 5 -9 2 -5 -9 3 -10
3 -17 -2 -17 -4 0 -6 -25 -3 -56 3 -34 1 -55 -5 -51 -11 7 -11 -83 1 -101 4
-7 2 -12 -6 -12 -11 0 -11 -2 0 -9 12 -7 11 -45 -4 -93 -3 -9 0 -19 6 -23 5
-3 10 -15 10 -26 0 -10 5 -19 10 -19 15 0 12 -29 -4 -46 -13 -12 -13 -18 0
-42 7 -15 14 -32 14 -38 0 -6 6 -16 13 -22 9 -8 13 -31 11 -67 -1 -30 2 -55 7
-55 5 0 9 -9 9 -21 0 -15 5 -19 15 -15 12 4 13 2 5 -13 -7 -15 -4 -24 13 -42
13 -13 24 -37 25 -53 1 -17 7 -33 14 -37 15 -10 18 -52 4 -62 -7 -6 -4 -7 7
-3 11 3 17 0 17 -10 0 -9 5 -12 12 -8 8 5 9 2 5 -10 -5 -13 0 -18 24 -23 23
-4 27 -8 17 -15 -9 -7 -5 -8 12 -3 14 4 33 7 43 6 9 0 17 4 17 10 0 5 4 8 9 7
5 -2 24 13 44 33 28 29 34 41 29 65 -3 16 -16 39 -29 52 -14 13 -19 22 -11 22
8 0 7 4 -4 10 -10 6 -20 29 -24 55 -3 25 -10 45 -15 45 -5 0 -9 7 -9 16 0 8
-4 13 -9 10 -4 -3 -6 5 -4 18 3 13 -5 43 -16 66 -12 24 -21 52 -21 63 0 18
-50 88 -50 70 0 -4 -4 -2 -9 5 -5 9 0 22 16 38 17 17 22 31 18 42 -11 27 -11
56 0 65 7 6 6 10 -2 13 -9 4 -9 13 -2 31 5 15 9 47 8 73 -1 25 1 52 5 58 4 7
2 12 -6 13 -7 0 -5 4 5 7 16 7 15 11 -12 38 l-30 30 30 18 c16 9 30 23 31 29
0 7 2 17 3 22 2 6 4 17 5 25 1 9 6 5 11 -10 6 -18 7 -11 3 24 -4 37 -3 46 7
41 8 -5 10 -4 5 3 -4 6 1 26 11 44 9 18 17 51 18 73 0 24 4 39 11 38 7 -1 16
16 22 37 8 35 8 40 -7 40 -9 1 5 10 32 22 32 14 47 27 47 39 0 11 5 19 11 19
6 0 9 6 7 13 -5 14 27 49 37 39 3 -4 3 2 -1 12 -5 13 -4 17 3 13 6 -4 13 3 16
14 4 14 10 18 18 13 9 -5 10 -2 6 10 -4 9 -3 15 2 12 12 -8 58 47 55 67 -1 9
1 16 4 15 15 -5 53 25 67 51 13 26 13 30 0 35 -8 3 -15 13 -15 22 0 10 -3 15
-6 11 -8 -8 -82 32 -95 52 -9 14 -10 14 -5 -1 6 -21 -9 -24 -21 -5 -4 7 -18
11 -31 9z m91 -71 c70 -34 82 -56 31 -56 -40 0 -57 -13 -51 -41 6 -35 -43 -79
-80 -71 -41 8 -62 -7 -34 -24 21 -14 29 -49 11 -49 -15 0 -118 83 -119 95 0 6
15 28 33 49 28 33 37 38 60 32 19 -5 28 -15 33 -36 4 -25 10 -30 34 -30 35 0
35 0 9 51 -38 73 -41 87 -23 104 8 9 18 14 22 12 3 -1 37 -18 74 -36z m-214
-216 c27 -20 52 -43 55 -51 8 -22 -24 -74 -50 -80 -24 -6 -124 52 -124 72 0
26 20 24 64 -7 44 -32 76 -34 76 -5 0 8 -20 27 -45 43 -43 27 -53 42 -38 56 9
10 8 10 62 -28z m-109 -109 c0 -7 -5 -17 -11 -23 -7 -7 7 -17 45 -34 37 -16
56 -30 56 -41 0 -25 -20 -22 -71 7 -51 29 -59 30 -59 11 0 -19 -13 -27 -29
-17 -17 11 36 121 56 114 7 -3 13 -11 13 -17z m-40 -142 c0 -9 -9 -18 -20 -21
-29 -8 -26 -47 5 -61 39 -18 58 -5 51 34 -8 39 11 56 31 29 33 -47 1 -108 -58
-108 -68 0 -113 75 -72 122 21 25 63 28 63 5z m-75 -141 c-3 -10 -9 -31 -12
-47 -8 -41 18 -30 29 12 5 19 15 32 24 32 16 0 15 -19 -2 -64 -4 -11 0 -16 14
-16 15 0 21 9 26 35 7 35 36 51 36 19 0 -13 -18 -87 -24 -101 -2 -3 -138 36
-143 40 -2 2 2 27 9 56 9 40 16 51 31 51 14 0 17 -5 12 -17z m-37 -160 c-2
-29 1 -38 12 -38 9 0 16 11 18 28 5 41 34 36 30 -5 -3 -31 -1 -33 30 -36 33
-3 37 -9 24 -28 -12 -18 -152 6 -152 25 0 46 14 91 27 91 11 0 14 -10 11 -37z
m-25 -99 c11 -4 14 -16 10 -45 -5 -31 -2 -39 10 -39 11 0 17 11 19 37 4 52 28
56 28 4 0 -55 27 -58 32 -4 2 27 8 39 21 41 17 3 18 -2 15 -55 -5 -65 7 -59
-108 -55 l-50 2 0 60 c0 33 2 60 4 60 2 0 11 -3 19 -6z m134 -149 c0 -8 -15
-27 -34 -41 -38 -29 -34 -49 7 -40 18 3 30 1 33 -8 9 -24 -7 -31 -77 -34 -78
-3 -86 2 -86 60 0 57 40 86 74 52 14 -14 18 -13 38 5 26 25 45 27 45 6z m-47
-183 c12 -26 20 -32 38 -29 22 4 42 -16 29 -30 -6 -6 -140 -33 -144 -29 -2 2
-6 24 -10 51 -5 40 -3 50 13 62 29 21 57 12 74 -25z m87 -122 c32 -69 30 -74
-47 -99 -40 -12 -73 -21 -75 -19 -2 2 -9 24 -16 50 -15 55 -1 83 37 74 14 -4
24 -1 28 10 9 24 59 14 73 -16z m43 -132 c14 -15 20 -33 18 -53 -2 -25 -12
-35 -56 -58 -29 -16 -59 -26 -67 -23 -29 11 -14 31 38 52 53 22 72 49 42 61
-10 3 -37 -4 -62 -16 -45 -22 -63 -21 -63 3 0 12 88 54 117 55 7 1 22 -9 33
-21z m69 -134 c25 -31 27 -57 6 -74 -21 -17 -35 -3 -29 29 4 16 1 32 -5 35
-20 13 -29 -3 -21 -39 16 -73 -51 -100 -85 -34 -12 22 -13 34 -5 49 12 22 29
27 31 8 1 -7 2 -22 3 -32 0 -11 7 -21 14 -24 9 -3 11 6 6 37 -11 70 43 98 85
45z"/>
<path d="M532 2458 c-18 -18 -15 -40 6 -36 9 2 18 13 20 26 4 24 -7 29 -26 10z"/>
<path d="M220 1496 c0 -29 10 -38 29 -27 18 11 10 45 -12 49 -12 3 -17 -3 -17
-22z"/>
<path d="M242 1348 c2 -12 10 -23 18 -23 22 0 19 39 -3 43 -15 3 -18 -1 -15
-20z"/>
<path d="M330 1220 c0 -19 5 -30 14 -30 22 0 28 17 16 40 -16 29 -30 25 -30
-10z"/>
<path d="M277 1223 c-9 -14 4 -54 16 -50 6 2 12 8 14 13 5 14 -23 49 -30 37z"/>
<path d="M2730 2032 c0 -5 -14 -6 -31 -4 -22 3 -30 1 -25 -7 5 -7 -3 -11 -22
-11 -16 0 -35 -7 -42 -15 -17 -21 -25 -95 -10 -95 7 0 10 -6 7 -12 -2 -7 5
-21 16 -30 11 -10 15 -18 9 -18 -19 0 -14 -67 8 -110 15 -30 27 -40 44 -40 14
0 26 5 28 11 2 6 27 11 56 11 67 -1 87 23 77 92 -4 25 -11 46 -15 46 -14 0
-27 45 -19 68 6 16 4 30 -7 48 -9 14 -12 24 -6 24 6 0 1 11 -12 25 -22 24 -56
34 -56 17z m45 -73 c8 -58 -7 -83 -56 -94 -46 -10 -69 3 -90 52 -11 25 -18 47
-17 48 5 4 133 43 145 44 6 1 14 -21 18 -50z m39 -171 c5 -47 3 -58 -8 -58 -9
0 -18 16 -23 41 -10 51 -29 51 -25 -1 2 -30 -1 -40 -13 -40 -9 0 -17 14 -21
39 -5 29 -10 38 -21 34 -12 -5 -13 -16 -8 -50 6 -40 4 -44 -12 -41 -13 2 -20
17 -26 57 -4 30 -6 56 -4 58 8 7 142 29 148 24 4 -3 9 -32 13 -63z"/>
<path d="M2690 1953 c-8 -2 -21 -6 -28 -9 -10 -3 -10 -9 -2 -24 21 -39 102
-16 86 25 -5 15 -27 18 -56 8z"/>
<path d="M2650 1608 c-13 -15 -16 -24 -9 -29 13 -8 14 -46 1 -114 -7 -33 -6
-54 0 -63 8 -9 6 -18 -7 -32 -10 -11 -14 -20 -9 -20 5 0 0 -7 -10 -15 -11 -8
-16 -15 -10 -15 5 0 2 -5 -6 -10 -12 -8 -12 -10 -1 -10 11 0 11 -3 1 -15 -9
-11 -9 -15 -1 -15 9 0 9 -5 1 -21 -7 -11 -9 -23 -6 -27 3 -3 -1 -13 -10 -23
-9 -10 -18 -37 -21 -61 -3 -24 -15 -53 -26 -66 -12 -12 -22 -30 -23 -39 -2 -9
-6 -19 -11 -22 -17 -13 -42 -71 -32 -76 5 -4 7 -10 4 -14 -9 -15 53 -71 71
-64 12 4 15 3 10 -5 -5 -8 -1 -10 10 -5 10 3 15 2 12 -3 -3 -5 11 -9 33 -9 22
-1 33 2 26 7 -9 6 -9 8 0 8 17 0 77 64 64 68 -6 2 -11 20 -11 39 0 20 3 33 6
30 4 -4 17 5 30 20 16 19 22 37 21 65 -2 28 1 37 11 33 7 -2 10 -1 7 4 -3 5 4
16 15 24 11 7 17 17 12 22 -4 4 0 6 9 2 13 -4 16 -1 11 15 -3 13 -7 16 -12 8
-5 -9 -9 -9 -14 -1 -4 6 0 14 8 17 9 3 14 10 11 14 -3 5 -1 11 4 15 10 6 7 37
-5 57 -4 7 -3 8 5 4 7 -5 13 3 17 24 4 17 11 33 15 36 16 10 10 86 -8 99 -15
11 -15 15 5 47 17 27 19 37 9 48 -9 10 -9 11 1 6 6 -4 12 -3 12 2 0 6 -11 13
-25 16 -16 4 -23 11 -19 18 5 8 2 9 -9 5 -10 -3 -17 -3 -17 1 0 10 -57 33 -92
38 -19 3 -34 -3 -48 -18z m104 -34 c52 -25 76 -42 74 -52 -2 -8 -34 -26 -75
-40 -40 -14 -73 -29 -73 -33 0 -4 32 -11 70 -15 41 -4 70 -11 70 -18 -1 -34
-21 -92 -36 -103 -24 -17 -31 -16 -53 6 -17 17 -24 18 -45 8 -14 -7 -26 -15
-26 -18 0 -3 26 -12 58 -19 69 -16 76 -21 67 -50 -6 -20 -12 -22 -51 -16 -53
7 -57 -4 -9 -27 26 -13 35 -23 35 -42 0 -30 2 -30 -80 -7 -46 13 -66 24 -69
37 -2 15 1 17 20 11 60 -19 73 -16 31 6 -60 31 -54 54 13 49 54 -3 56 7 3 18
-26 6 -33 12 -34 31 -1 39 6 50 42 65 44 18 46 45 4 45 -30 0 -31 1 -24 38 3
20 13 43 22 49 24 19 25 51 2 63 -16 9 -30 50 -16 50 2 0 38 -16 80 -36z m-35
-529 c2 -24 -18 -30 -92 -27 -67 3 -78 6 -75 20 2 10 11 16 21 14 23 -4 42 44
26 64 -6 8 -8 21 -5 30 5 14 17 7 65 -37 32 -30 59 -58 60 -64z m-134 -55 c0
-8 -10 -16 -22 -18 -22 -3 -37 -27 -27 -43 3 -5 21 4 40 21 39 34 38 34 65 20
40 -22 6 -110 -43 -110 -27 0 -22 29 7 40 14 5 25 16 25 25 0 22 -13 19 -40
-10 -25 -27 -59 -32 -78 -13 -19 19 -14 60 10 85 24 26 63 27 63 3z"/>
<path d="M2730 1524 c0 -11 5 -14 16 -10 9 3 20 6 25 6 6 0 7 5 4 10 -10 16
-45 12 -45 -6z"/>
<path d="M2745 1379 c-8 -23 7 -45 24 -35 6 4 11 18 11 32 0 30 -26 32 -35 3z"/>
<path d="M1270 2885 c-19 -23 1 -70 30 -70 32 0 47 27 32 59 -13 29 -43 34
-62 11z"/>
<path d="M1765 2874 c-24 -24 -16 -68 14 -72 13 -2 28 2 32 10 27 42 -13 95
-46 62z"/>
<path d="M1127 2854 c-3 -3 -3 -12 0 -20 4 -10 10 -11 24 -3 10 5 19 14 19 19
0 11 -33 14 -43 4z"/>
<path d="M868 2739 c-16 -9 -16 -12 4 -45 13 -22 26 -33 35 -30 8 3 17 6 19 6
12 0 1 39 -16 58 -12 12 -22 22 -23 22 -1 0 -10 -5 -19 -11z"/>
<path d="M1400 2427 c-19 -7 -65 -28 -103 -46 -88 -43 -159 -50 -246 -22 -74
23 -84 20 -130 -38 -17 -22 -63 -63 -101 -93 -92 -70 -95 -85 -41 -205 23 -50
44 -105 47 -122 8 -38 -9 -106 -42 -174 -50 -102 -73 -168 -84 -241 -24 -157
22 -300 127 -396 88 -80 150 -107 295 -125 198 -26 229 -38 325 -128 50 -47
52 -48 63 -27 18 34 128 109 184 125 28 8 104 21 168 29 152 18 208 44 304
141 86 87 113 147 121 275 7 111 -5 167 -69 303 -43 91 -53 124 -56 177 -3 59
0 73 37 153 53 113 54 147 4 184 -21 15 -73 63 -117 106 -43 42 -80 77 -83 77
-3 0 -36 -10 -75 -21 -97 -30 -156 -22 -261 31 -70 36 -93 43 -157 46 -45 2
-89 -1 -110 -9z m265 -68 c80 -39 96 -43 160 -43 39 0 91 8 119 18 l50 17 60
-64 c34 -35 82 -78 109 -96 33 -22 47 -39 47 -54 0 -13 -18 -63 -40 -112 -33
-75 -40 -101 -40 -155 0 -57 6 -77 51 -172 63 -132 79 -192 79 -289 0 -138
-57 -250 -172 -335 -77 -56 -119 -70 -273 -89 -145 -17 -223 -47 -286 -108
l-34 -33 -59 48 c-74 59 -121 75 -290 98 -159 21 -203 39 -290 121 -76 71
-112 134 -126 224 -20 121 -2 208 76 370 42 87 48 108 49 165 0 56 -6 78 -42
156 -24 50 -43 98 -43 107 0 9 17 29 38 44 20 15 69 60 109 100 l71 71 74 -19
c94 -26 153 -19 250 28 96 47 120 53 198 49 53 -3 82 -12 155 -47z"/>
<path d="M1330 2329 c-102 -49 -188 -61 -260 -35 -25 9 -52 16 -60 16 -8 0
-36 -24 -62 -54 -26 -29 -68 -67 -93 -82 -25 -16 -45 -36 -45 -45 0 -9 16 -50
35 -91 68 -147 66 -195 -10 -354 -57 -119 -75 -183 -75 -266 0 -92 16 -152 58
-216 76 -116 167 -163 362 -187 74 -10 145 -21 158 -26 35 -13 140 -87 144
-101 3 -9 20 1 48 26 67 60 128 83 275 101 156 20 226 48 303 123 75 73 106
144 110 254 5 104 -10 161 -76 296 -42 86 -46 103 -50 181 -3 84 -2 88 37 169
23 46 41 89 41 95 0 7 -23 27 -51 46 -28 19 -70 57 -94 84 l-43 50 -66 -18
c-96 -26 -166 -17 -268 34 -74 37 -88 41 -158 41 -69 0 -84 -4 -160 -41z m222
0 c24 -6 72 -25 108 -42 63 -31 69 -32 199 -32 99 0 135 -3 138 -12 5 -14 -1
-15 -81 -18 -30 -1 -53 -7 -60 -17 -6 -8 -17 -13 -25 -10 -11 4 -11 6 0 13 15
10 -20 13 -106 10 -164 -6 -531 -5 -522 1 7 4 -22 6 -63 3 -44 -3 -74 -9 -73
-15 4 -14 -3 -13 -40 6 -42 22 -42 21 -24 38 15 16 28 15 128 -10 30 -7 183
29 208 48 30 24 62 39 71 33 5 -3 11 -2 14 3 8 13 82 14 128 1z m-603 -145
c-14 -17 -20 -86 -7 -78 4 3 10 -7 14 -21 3 -14 11 -25 18 -26 6 0 -4 -5 -22
-10 -18 -5 -30 -14 -27 -19 4 -6 -1 -10 -9 -10 -9 0 -16 5 -16 11 0 5 -4 8 -9
5 -10 -7 -31 46 -31 78 0 14 16 32 48 53 54 37 59 39 41 17z m81 1 c15 -18 3
-42 -13 -26 -18 18 -27 12 -27 -19 0 -30 13 -40 25 -20 12 19 25 0 15 -21 -23
-42 -63 -16 -62 41 1 55 34 79 62 45z m77 -36 c16 -54 10 -82 -12 -53 -14 19
-14 19 -28 0 -8 -11 -17 -15 -20 -9 -5 8 -1 30 19 101 7 26 29 5 41 -39z m169
-7 c11 -54 4 -77 -15 -45 -11 17 -11 17 -22 0 -16 -27 -31 -10 -23 26 20 92
41 99 60 19z m214 -3 c0 -54 -18 -67 -38 -26 l-11 22 0 -22 c-1 -13 -7 -23
-13 -23 -9 0 -13 17 -13 50 0 54 18 68 35 28 8 -22 9 -22 9 -2 1 11 4 24 7 27
15 14 24 -7 24 -54z m70 46 c0 -8 -7 -15 -15 -15 -8 0 -15 -4 -15 -10 0 -5 7
-10 15 -10 8 0 15 -4 15 -10 0 -5 -7 -10 -15 -10 -8 0 -15 -4 -15 -10 0 -5 7
-10 15 -10 8 0 15 -7 15 -15 0 -16 -17 -19 -44 -9 -12 4 -16 20 -16 54 0 45 2
49 28 53 15 2 28 5 30 6 1 0 2 -6 2 -14z m156 7 c12 -7 17 -36 15 -79 -1 -26
-36 -40 -56 -23 -8 7 -15 29 -15 49 0 50 25 74 56 53z m85 -2 c29 -16 24 -33
-8 -26 l-28 7 30 -25 c25 -20 28 -28 19 -43 -17 -28 -58 -24 -62 7 -4 21 -2
22 12 11 9 -8 19 -11 23 -7 4 3 -3 13 -15 22 -21 15 -29 44 -15 57 9 10 21 9
44 -3z m134 -21 c11 -35 -5 -79 -30 -85 -36 -9 -45 2 -45 56 0 38 4 49 18 52
28 6 51 -3 57 -23z m83 14 c2 -8 -5 -13 -17 -13 -12 0 -21 -4 -21 -10 0 -5 7
-10 15 -10 8 0 15 -4 15 -10 0 -5 -7 -10 -15 -10 -8 0 -15 -4 -15 -10 0 -5 9
-10 21 -10 12 0 19 -5 17 -12 -3 -7 -18 -13 -34 -13 -28 0 -29 2 -32 52 -2 42
0 52 15 56 27 7 46 3 51 -10z m46 -14 c-2 -4 4 -6 14 -5 10 0 17 -6 16 -16 -1
-10 4 -14 11 -11 9 3 12 -3 10 -19 -4 -35 -16 -58 -29 -58 -6 0 -4 -5 4 -10
12 -7 10 -11 -10 -18 -14 -5 -27 -6 -30 -2 -3 4 -18 12 -35 18 -18 6 -23 11
-12 11 10 1 15 6 12 11 -3 6 -1 10 6 10 7 0 10 11 7 30 -3 22 0 30 11 31 13 1
12 2 -1 6 -14 3 -16 9 -8 22 5 10 6 22 2 26 -4 4 3 2 15 -6 12 -7 20 -16 17
-20z m-865 -34 c0 -54 -14 -77 -21 -33 -5 32 -28 35 -28 3 0 -15 -4 -24 -10
-20 -5 3 -10 28 -10 56 l0 49 34 0 35 0 0 -55z m156 5 c0 -41 -2 -45 -26 -48
-26 -3 -27 -1 -30 48 l-4 51 30 -3 c28 -3 30 -5 30 -48z m43 0 c-4 -63 -20
-61 -22 3 -1 33 3 47 12 47 9 0 12 -14 10 -50z m248 -2 c1 -35 -2 -48 -12 -48
-8 0 -14 9 -14 20 0 26 -18 26 -22 0 -6 -40 -23 -19 -25 30 l-2 51 36 -3 c36
-3 37 -4 39 -50z m281 -83 c25 0 48 -4 50 -10 3 -11 -85 -75 -104 -75 -7 0
-42 -13 -78 -30 -36 -16 -71 -30 -77 -30 -15 0 -101 -32 -108 -40 -3 -3 -31
-14 -63 -23 -56 -18 -58 -18 -120 4 -34 13 -65 27 -68 31 -3 5 -13 6 -22 2 -9
-3 -17 -2 -17 4 0 6 -15 14 -32 17 -18 4 -53 16 -78 27 -25 11 -54 24 -65 29
-11 5 -27 10 -35 11 -8 2 -17 5 -20 8 -3 3 -22 14 -42 24 -26 13 -38 26 -38
40 0 17 2 18 10 6 6 -9 10 -10 10 -3 0 6 8 12 18 12 9 1 42 2 72 4 30 2 65 0
77 -4 13 -5 25 -4 29 2 4 8 9 8 17 0 7 -7 16 -7 30 1 18 9 19 8 14 -21 -5 -23
-3 -30 5 -25 8 5 9 2 5 -9 -7 -19 16 -81 26 -70 4 3 7 2 7 -3 0 -5 21 -8 48
-6 85 5 160 5 186 -2 17 -4 26 -2 26 5 0 8 4 8 14 0 10 -8 16 -9 21 -1 3 5 11
10 16 10 6 0 7 -4 4 -10 -3 -5 -2 -10 4 -10 14 0 33 36 30 58 -1 9 0 22 1 27
1 6 3 17 4 25 0 8 7 14 14 13 6 -2 12 1 12 6 0 12 39 21 45 11 6 -9 63 6 79
20 4 5 17 1 27 -8 12 -10 37 -17 66 -17z m-542 -5 c11 -17 -5 -32 -21 -19 -12
9 -14 5 -14 -27 0 -34 1 -36 13 -19 16 21 31 7 21 -20 -4 -10 -16 -15 -33 -13
-22 3 -26 8 -29 42 -2 21 -1 44 2 52 6 16 52 19 61 4z m45 -10 c0 -11 5 -20
10 -20 6 0 10 9 10 20 0 11 5 20 10 20 6 0 10 -25 10 -55 0 -30 -4 -55 -10
-55 -5 0 -10 12 -10 26 0 16 -5 24 -12 21 -7 -2 -12 -14 -10 -25 2 -15 -2 -22
-12 -22 -13 0 -16 12 -16 55 0 42 3 55 15 55 8 0 15 -9 15 -20z m80 -35 c0
-30 -4 -55 -10 -55 -5 0 -10 25 -10 55 0 30 5 55 10 55 6 0 10 -25 10 -55z
m44 10 c1 -31 5 -39 24 -41 20 -4 22 0 22 41 0 43 1 45 30 45 17 0 30 -4 30
-10 0 -5 -9 -10 -20 -10 -11 0 -20 -4 -20 -10 0 -5 9 -10 20 -10 11 0 20 -4
20 -10 0 -5 -9 -10 -20 -10 -27 0 -26 -18 2 -22 12 -2 23 -8 25 -15 3 -8 -17
-11 -66 -11 l-71 0 0 55 c0 38 4 53 12 51 6 -2 12 -21 12 -43z m-553 -23 c8
-10 43 -31 79 -47 36 -15 89 -38 118 -51 29 -13 58 -24 65 -24 14 0 180 -64
210 -80 11 -7 23 -7 35 0 23 13 199 80 211 80 25 0 248 103 260 120 7 11 21
20 30 20 20 0 62 -29 43 -30 -7 0 -12 -7 -10 -15 2 -11 -15 -23 -53 -39 -31
-12 -72 -32 -90 -44 -19 -12 -61 -36 -95 -53 -54 -28 -62 -36 -78 -82 -10 -27
-14 -52 -9 -56 4 -3 14 -18 21 -32 21 -40 63 -81 77 -75 7 2 35 -10 63 -27
151 -95 192 -123 192 -130 0 -5 -15 -23 -33 -40 -18 -18 -40 -43 -49 -57 -14
-21 -19 -23 -36 -13 -16 10 -27 8 -58 -8 -86 -43 -243 -18 -352 58 l-53 36
-22 -20 c-90 -83 -288 -121 -379 -73 -36 19 -42 19 -57 6 -19 -18 -31 -11 -51
28 -8 16 -27 38 -42 49 -16 12 -28 26 -27 31 1 17 221 157 253 160 28 4 66 41
94 94 10 20 9 33 -5 74 -16 46 -23 52 -78 79 -33 16 -75 39 -94 51 -18 11 -59
31 -90 44 -31 13 -56 29 -56 36 0 7 -4 16 -10 21 -13 9 13 27 41 27 12 0 28
-8 35 -18z m6 -109 c32 -15 61 -32 65 -37 3 -6 27 -20 52 -31 25 -11 46 -23
46 -27 0 -5 9 -8 20 -8 11 0 26 -12 34 -29 14 -27 14 -31 -7 -62 -13 -19 -26
-42 -30 -52 -4 -10 -11 -16 -16 -13 -11 7 -133 -53 -144 -71 -4 -7 -14 -13
-20 -13 -7 0 -19 -9 -27 -19 -7 -11 -17 -18 -21 -15 -11 7 -40 -7 -34 -17 3
-4 -6 -16 -20 -25 -34 -22 -32 -53 9 -96 19 -20 37 -45 41 -57 3 -12 11 -21
16 -21 6 0 -2 -10 -16 -22 -23 -21 -25 -25 -13 -50 7 -16 16 -28 21 -28 14 0
7 -28 -10 -35 -34 -15 -44 -13 -53 8 -5 12 -9 19 -9 15 -2 -18 -44 31 -62 72
-53 119 -44 262 26 400 54 106 89 203 78 214 -5 5 6 46 12 46 3 0 30 -12 62
-27z m1044 -29 c9 -71 28 -134 40 -134 6 0 8 -7 5 -16 -3 -8 -2 -12 4 -9 6 3
11 1 11 -4 3 -20 4 -26 11 -36 3 -6 9 -27 13 -47 4 -21 11 -35 16 -32 5 3 9
-4 9 -16 0 -12 4 -29 9 -38 25 -47 16 -242 -11 -242 -5 0 -7 -4 -4 -9 3 -5 -4
-20 -15 -35 -11 -14 -17 -26 -13 -26 4 0 -9 -13 -27 -30 -19 -16 -41 -30 -50
-30 -15 0 -56 37 -48 43 2 2 15 12 29 21 l25 18 -30 -5 c-40 -8 -105 -35 -105
-45 0 -5 25 -16 55 -26 76 -24 78 -36 6 -36 -84 0 -90 4 -84 51 l6 39 -42 0
c-35 0 -41 3 -41 21 0 19 5 20 115 17 107 -3 142 3 95 15 -31 8 -24 39 19 87
37 42 56 85 44 103 -3 5 -19 17 -37 28 -17 10 -26 19 -21 19 9 0 -10 12 -77
47 -16 8 -28 19 -28 24 0 5 -9 9 -20 9 -10 0 -23 6 -27 13 -4 7 -24 20 -43 27
-36 15 -79 56 -80 77 0 6 -6 13 -12 16 -9 3 -5 10 10 22 12 9 20 20 17 25 -3
4 18 20 46 34 28 14 58 33 66 43 8 10 11 12 7 4 -4 -8 8 -3 27 12 39 30 99 58
114 53 6 -1 13 -25 16 -52z m-532 -503 c8 -5 10 -14 5 -22 -7 -12 -5 -12 9 -1
17 14 42 7 32 -9 -5 -8 9 -13 18 -6 2 1 11 -3 19 -10 8 -7 40 -19 73 -27 119
-32 94 -37 -156 -37 -235 1 -366 10 -314 22 17 4 50 7 75 8 25 0 54 7 65 15
11 7 33 16 48 20 15 4 25 11 22 15 -3 5 5 7 17 4 13 -3 20 -2 15 2 -4 5 5 14
20 21 35 15 35 15 52 5z m-359 -121 c0 -17 -7 -20 -40 -20 l-40 0 0 -45 0 -45
-72 0 c-80 0 -81 8 -5 37 27 11 49 23 49 28 0 6 -25 19 -56 30 -31 11 -56 23
-56 27 0 5 50 8 110 8 103 0 110 -1 110 -20z m720 -67 c0 -21 3 -48 6 -60 l6
-23 -402 0 -402 0 6 23 c3 12 6 39 6 60 l0 37 390 0 390 0 0 -37z m-214 -126
c4 -4 -2 -9 -12 -12 -26 -8 -88 -38 -94 -46 -3 -3 -15 -11 -28 -18 -12 -7 -20
-16 -16 -22 13 -21 -51 2 -88 31 -21 17 -57 39 -80 50 l-42 19 40 3 c67 6 313
2 320 -5z"/>
<path d="M1685 2150 c-7 -21 0 -40 16 -40 5 0 9 14 9 30 0 34 -15 40 -25 10z"/>
<path d="M1890 2140 c0 -16 5 -30 10 -30 6 0 10 14 10 30 0 17 -4 30 -10 30
-5 0 -10 -13 -10 -30z"/>
<path d="M1260 1781 c0 -5 7 -25 16 -46 11 -28 19 -35 32 -30 9 4 30 10 47 14
24 5 27 9 15 16 -35 22 -110 53 -110 46z"/>
<path d="M1658 1761 c-32 -14 -58 -28 -58 -32 0 -4 12 -9 28 -11 15 -3 35 -8
44 -12 13 -6 21 1 33 30 8 21 14 40 13 44 -2 3 -29 -5 -60 -19z"/>
<path d="M1433 1647 c-30 -15 -43 -27 -43 -42 0 -12 -5 -26 -12 -33 -9 -9 -3
-21 28 -55 23 -23 51 -53 63 -67 l23 -25 64 69 c53 57 62 71 50 78 -9 5 -16
20 -16 34 0 20 -9 29 -46 44 -56 24 -58 24 -111 -3z m92 -32 c20 -8 34 -20 33
-27 -2 -7 3 -12 10 -10 20 4 14 -10 -22 -53 -31 -36 -35 -38 -52 -25 -19 14
-19 14 0 -7 18 -21 18 -22 -2 -20 -11 0 -19 4 -16 8 2 4 -5 10 -16 14 -11 4
-18 11 -15 16 4 5 2 9 -3 9 -5 0 -14 12 -21 27 -11 23 -9 29 11 48 20 18 38
29 56 34 1 1 18 -6 37 -14z"/>
<path d="M1600 1606 c0 -14 29 -31 38 -21 6 6 -18 35 -29 35 -5 0 -9 -6 -9
-14z"/>
<path d="M1266 1551 c-9 -17 -26 -31 -43 -35 -33 -8 -171 -162 -157 -175 18
-17 79 -31 129 -31 67 0 166 30 229 70 l48 31 -49 52 c-27 29 -55 61 -63 72
-13 17 -59 45 -75 45 -3 0 -11 -13 -19 -29z m62 -16 c-3 -3 20 -31 50 -62 55
-57 56 -57 31 -68 -13 -5 -36 -18 -51 -28 -15 -10 -32 -16 -38 -12 -5 3 -10 2
-10 -3 0 -6 -20 -17 -45 -26 -25 -8 -43 -11 -40 -7 3 5 -2 12 -11 15 -24 9
-31 7 -14 -5 11 -8 6 -9 -20 -4 -19 3 -45 6 -57 5 -21 0 -21 2 -8 18 65 76
110 120 117 116 4 -3 8 -1 8 4 0 5 12 14 26 20 14 7 22 17 19 22 -3 5 0 7 8 4
8 -3 18 -1 22 5 3 6 9 11 12 11 4 0 4 -2 1 -5z"/>
<path d="M1664 1567 c-11 -7 -51 -44 -88 -84 l-67 -72 43 -25 c69 -40 133 -66
181 -72 57 -8 149 3 173 20 16 12 12 19 -50 92 -39 45 -82 84 -99 90 -16 6
-36 23 -44 37 -15 30 -19 31 -49 14z m52 -64 c17 -13 35 -23 40 -23 5 0 18
-12 29 -26 11 -14 30 -35 42 -46 12 -12 20 -25 17 -30 -3 -4 3 -8 13 -9 11 0
13 -3 5 -6 -6 -2 -10 -9 -6 -14 4 -8 -19 -11 -86 -12 -23 -1 -131 33 -173 55
-40 20 -40 27 -2 63 5 6 15 19 22 30 6 11 16 19 23 17 6 -1 8 3 4 9 -8 13 16
30 31 22 5 -4 24 -17 41 -30z"/>
<path d="M1143 1173 c-7 -2 -13 -16 -13 -29 0 -22 4 -24 40 -22 22 2 40 7 40
13 0 5 5 4 12 -3 7 -7 29 -12 50 -12 33 0 38 3 38 24 0 22 -16 36 -41 36 -5 0
-9 -11 -9 -25 0 -14 -5 -25 -11 -25 -6 0 -8 8 -4 19 7 24 -33 41 -46 20 -6
-11 -11 -11 -21 -1 -13 13 -16 13 -35 5z"/>
<path d="M1320 1150 c0 -28 3 -30 35 -30 21 0 35 5 35 12 0 9 3 9 12 0 19 -19
28 -14 28 13 0 26 -15 34 -23 13 -4 -10 -6 -10 -6 0 -2 20 -21 13 -21 -8 0
-14 -7 -20 -22 -20 -17 0 -19 3 -9 9 10 6 10 10 1 16 -9 6 -9 10 1 16 10 6 8
9 -8 9 -19 0 -23 -6 -23 -30z"/>
<path d="M1464 1155 c9 -39 26 -56 26 -28 0 12 5 25 10 28 6 3 10 11 10 17 0
7 -4 7 -13 -1 -10 -8 -17 -7 -27 2 -10 10 -11 6 -6 -18z"/>
<path d="M1547 1173 c-8 -8 -9 -53 -2 -53 14 0 46 40 40 49 -7 12 -28 15 -38
4z"/>
<path d="M1607 1153 l-16 -30 30 0 c33 0 34 2 15 36 l-14 25 -15 -31z"/>
<path d="M1664 1164 c3 -9 6 -22 6 -30 0 -27 18 -14 22 16 4 25 1 30 -15 30
-13 0 -17 -5 -13 -16z"/>
<path d="M1710 1151 c0 -17 5 -31 10 -31 6 0 10 6 10 13 0 9 2 9 8 -1 5 -8 27
-11 60 -10 29 1 52 3 52 5 0 9 -25 53 -30 53 -4 0 -12 -10 -18 -22 -8 -18 -11
-19 -11 -5 -1 24 -21 22 -21 -3 0 -11 -4 -20 -10 -20 -5 0 -9 10 -7 22 1 17
-4 24 -20 26 -20 3 -23 -1 -23 -27z"/>
<path d="M2454 2459 c-7 -12 22 -46 32 -37 8 9 -5 48 -16 48 -5 0 -12 -5 -16
-11z"/>
<path d="M2525 2310 c-11 -17 5 -32 21 -19 8 6 14 15 14 20 0 12 -27 11 -35
-1z"/>
<path d="M1010 662 c0 -10 -125 -221 -139 -235 -14 -14 128 -76 190 -84 59 -7
99 13 140 73 34 50 41 102 20 142 -7 13 -51 41 -106 67 -101 48 -105 49 -105
37z m50 -57 c0 -3 -16 -26 -36 -52 -39 -52 -57 -88 -56 -115 1 -21 -26 -24
-34 -4 -3 7 11 40 32 72 20 33 43 69 50 82 12 19 44 32 44 17z m76 -81 c5 -19
-1 -36 -23 -67 -26 -37 -34 -42 -67 -41 -59 2 -61 13 -14 91 43 71 43 71 70
57 15 -8 31 -26 34 -40z m53 -54 c-10 -28 -58 -84 -66 -77 -2 3 7 22 22 42 25
38 28 48 26 95 0 24 0 24 13 -4 9 -21 11 -38 5 -56z"/>
<path d="M1926 632 c-3 -5 -24 -15 -46 -22 -37 -12 -41 -17 -37 -39 3 -14 11
-82 18 -151 6 -69 13 -126 14 -128 1 -1 23 7 49 18 40 18 45 24 40 45 -5 20 0
27 35 44 48 25 69 26 91 6 16 -14 22 -13 64 8 l48 24 -34 20 c-18 11 -77 57
-132 102 -54 44 -100 81 -102 81 -1 0 -5 -4 -8 -8z m10 -62 c-15 -5 -10 -14
34 -53 l51 -46 -33 -14 c-18 -8 -36 -12 -40 -10 -4 2 -10 26 -14 53 -6 49 -17
63 -27 38 -4 -10 -8 -9 -16 2 -14 19 22 52 46 43 15 -6 15 -7 -1 -13z m159
-110 c7 -12 -25 -13 -41 -2 -6 4 -15 18 -19 31 l-7 24 31 -22 c17 -12 33 -26
36 -31z m-159 -64 c-21 -32 -31 -25 -34 22 l-3 43 25 -22 c23 -20 25 -25 12
-43z"/>
<path d="M2201 550 l-34 -29 28 -30 28 -29 36 26 c20 14 37 27 39 28 3 2 -55
64 -60 64 -1 -1 -18 -14 -37 -30z"/>
<path d="M1446 530 c-114 -34 -131 -211 -25 -266 24 -12 51 -15 105 -12 65 3
77 7 104 33 39 38 39 61 -1 69 -47 9 -59 7 -59 -9 0 -18 -31 -35 -64 -35 -71
0 -77 150 -6 160 32 5 51 -1 66 -18 14 -16 22 -17 59 -9 l44 10 -20 29 c-36
50 -124 71 -203 48z m-14 -72 c-17 -21 -24 -81 -13 -111 12 -31 5 -35 -15 -9
-27 35 -7 132 28 132 7 0 7 -4 0 -12z"/>
<path d="M1204 352 c-3 -10 -9 -26 -14 -38 -7 -19 -3 -22 38 -32 26 -6 50 -8
53 -4 11 12 21 72 12 72 -4 0 -25 4 -46 9 -32 8 -39 6 -43 -7z"/>
<path d="M1737 353 c-21 -3 -27 -9 -23 -20 3 -8 9 -26 12 -39 7 -27 12 -28 64
-13 37 11 37 12 27 45 -11 35 -15 37 -80 27z"/>
</g>
</svg>
